<svg id="Close" xmlns="http://www.w3.org/2000/svg" width="24" height="24" viewBox="0 0 24 24">
  <rect id="Rectangle_1796" data-name="Rectangle 1796" width="24" height="24" fill="#fff" opacity="0"/>
  <path id="Vector" d="M6.99,6,11.821.241A.146.146,0,0,0,11.709,0H10.24a.3.3,0,0,0-.226.1L6.029,4.855,2.044.1A.294.294,0,0,0,1.818,0H.349A.146.146,0,0,0,.237.241L5.068,6,.237,11.759A.146.146,0,0,0,.349,12H1.818a.3.3,0,0,0,.226-.1l3.985-4.75,3.985,4.75a.294.294,0,0,0,.226.1h1.469a.146.146,0,0,0,.112-.241Z" transform="translate(5.798 6)" fill="#fff"/>
</svg>
