<?xml version="1.0" encoding="utf-8"?>
<!-- Generator: Adobe Illustrator 19.0.0, SVG Export Plug-In . SVG Version: 6.00 Build 0)  -->
<svg version="1.1" id="Layer_1" xmlns="http://www.w3.org/2000/svg" xmlns:xlink="http://www.w3.org/1999/xlink" x="0px" y="0px"
	 viewBox="0 0 69.3 90.1" style="enable-background:new 0 0 69.3 90.1;" xml:space="preserve">
<style type="text/css">
	.st0{fill:#C75F5F;}
</style>
<g id="XMLID_57_">
	<g id="XMLID_80_">
		<path id="XMLID_82_" class="st0" d="M7.2,22.3c18.4,0,36.3,0,54.7,0c0.1,1.3,0.3,2.6,0.3,4c0,16.2,0,32.5,0,48.7
			c0,8-3.5,11.5-11.5,11.5c-11,0-22.1,0-33.1,0c-5.8,0-10.2-3.5-10.2-9C7,59.3,7.2,41,7.2,22.3z"/>
		<path id="XMLID_81_" class="st0" d="M66.6,8.3c0,3.2,0,5.8,0,8.8c-21.2,0-42.4,0-63.8,0c0-2.8,0-5.5,0-8.8c4.2,0,8.3,0.1,12.4,0
			c1.5,0,3.6-0.1,4.2-1C22.4,3,26.8,3.7,31,3.7c3.2,0,6.4,0.2,9.7,0c3.4-0.2,6.2,0.3,8.6,3.1c0.9,1,2.9,1.4,4.5,1.5
			C57.8,8.4,62,8.3,66.6,8.3z"/>
	</g>
</g>
</svg>
