<?xml version="1.0" encoding="utf-8"?>
<!-- Generator: Adobe Illustrator 19.0.0, SVG Export Plug-In . SVG Version: 6.00 Build 0)  -->
<svg version="1.1" id="Layer_1" xmlns="http://www.w3.org/2000/svg" xmlns:xlink="http://www.w3.org/1999/xlink" x="0px" y="0px"
	 viewBox="0 0 95.8 95.8" style="enable-background:new 0 0 95.8 95.8;" xml:space="preserve">
<style type="text/css">
	.st0{fill:#009FE3;}
	.st1{fill:#231F20;}
	.st2{fill:#FFFFFF;}
	.st3{fill:#F30A0A;}
</style>
<g>
	<circle class="st0" cx="47.9" cy="47.9" r="46.3"/>
	<circle class="st1" cx="47.9" cy="47.9" r="28.9"/>
	<g>
		<path class="st2" d="M46.5,62.2c-9.7-0.2-14.3-7.9-15.2-14.3c-1.1-7.2,3.3-15.3,9.8-17.8c5.5-2.1,11-1.8,16.2,1.2
			c5.7,3.3,7.7,8.5,7.2,14.8c-0.3,5.8-3,10.4-7.7,13.7c-1.7,1.2-3.7,1.9-5.8,2.1c-0.4-0.5-0.5-1.1-0.5-1.7c0.7,0,1.3-0.1,1.9-0.3
			c3.7-1.5,6.1-4.2,7.2-7.9c1-3.3,0.9-6.6,0.4-10c-1.1-7.7-7.6-12.6-14.7-11.4c-4.1,0.7-7.3,2.9-8.8,6.8c-2.1,5.4-1.8,11,0.9,16.1
			c2,3.8,5.2,6.3,9.6,6.8C47.1,61.1,46.6,61.6,46.5,62.2z"/>
		<path class="st3" d="M50.6,60.3c0,0.6,0.1,1.2,0.5,1.7c-0.1,0.9,0.4,1.7,0.6,2.6c0.1,0.4,0.2,0.7,0.3,1.2c0.3,1.3,0.3,1.3-1.1,1.2
			c-1.6,0-3.2,0-4.9,0c-0.7,0-0.9-0.1-0.5-0.8c0.6-1.2,0.8-2.6,1.1-3.9c0.1-0.6,0.6-1.2,0.5-1.8c0.6-1.7,0.9-3.5,1.7-5.4
			c0.5,1.6,1,3,1.4,4.5C50.2,59.8,50.2,60.1,50.6,60.3z"/>
	</g>
</g>
</svg>
