<?xml version="1.0" encoding="utf-8"?>
<!-- Generator: Adobe Illustrator 19.0.0, SVG Export Plug-In . SVG Version: 6.00 Build 0)  -->
<svg version="1.1" id="Layer_1" xmlns="http://www.w3.org/2000/svg" xmlns:xlink="http://www.w3.org/1999/xlink" x="0px" y="0px"
	 viewBox="0 0 227.2 80.9" style="enable-background:new 0 0 227.2 80.9;" xml:space="preserve">
<style type="text/css">
	.st0{fill:#FFFFFF;}
</style>
<g id="XMLID_8_">
	<path id="XMLID_11_" class="st0" d="M65.9,74.1c-8.2,4.5-17.3,6.8-27.3,6.8c-11.4,0-20.9-3.6-28.2-10.9C3.6,62.7,0,53.2,0,41.3
		c0-12.3,4.1-21.8,11.8-29.5S29.5,0,41.8,0c8.6,0,15.9,1.4,21.8,3.6v13.2c-5.9-4.1-13.2-5.9-21.4-5.9s-15,2.7-20.4,8.2
		c-5.5,5.9-8.2,12.7-8.2,21.8c0,9.1,2.3,15.9,6.8,21.4c4.5,5,10.9,7.7,18.6,7.7c5.5,0,10-0.9,14.1-3.2V48.2H36.3V37.3h29.5V74.1z"/>
	<path id="XMLID_10_" class="st0" d="M79.1,76.3V63.2c1.4,0.9,2.7,2.3,4.1,2.7c1.8,0.9,3.2,1.8,5.5,2.3c1.8,0.5,3.6,0.9,5.5,1.4
		c1.8,0.5,3.6,0.5,5,0.5c5.5,0,9.5-0.9,12.3-2.7c2.7-1.8,4.1-4.5,4.1-7.7c0-1.8-0.5-3.6-1.4-5c-0.9-1.4-2.3-2.7-3.6-3.6
		c-1.8-0.9-3.6-2.3-5.5-3.2c-2.3-0.9-4.5-2.3-6.8-3.2c-2.7-1.4-5-2.7-7.3-4.1s-4.1-3.2-5.9-5c-1.8-1.8-3.2-3.6-4.1-5.9
		c-0.9-2.3-1.4-5-1.4-7.7c0-3.6,0.9-6.8,2.3-9.5c1.8-2.7,3.6-5,6.4-6.8c2.7-1.8,5.9-3.2,9.1-4.1C100.9,0.5,104,0,107.7,0
		c8.2,0,14.1,0.9,17.7,2.7v12.7c-4.5-3.2-10-5-17.3-5c-1.8,0-3.6,0-5.9,0.5c-1.8,0.5-3.6,0.9-5,1.8c-1.4,0.9-2.7,1.8-3.6,3.2
		s-1.4,2.7-1.4,4.5s0.5,3.2,0.9,4.5c0.9,1.4,1.8,2.3,3.2,3.6c1.4,0.9,3.2,2.3,5,3.2c1.8,0.9,4.5,2.3,6.8,3.2
		c2.7,1.4,5.5,2.7,7.7,4.5c2.3,1.4,4.5,3.2,6.4,5c1.8,1.8,3.2,4.1,4.5,6.4c0.9,2.3,1.8,5,1.8,7.7c0,4.1-0.9,7.3-2.3,10
		c-1.8,2.7-3.6,5-6.4,6.8c-2.7,1.8-5.9,2.7-9.5,3.6c-3.6,0.9-7.3,1.4-11.4,1.4c-1.4,0-2.7,0-5-0.5c-1.8,0-3.6-0.5-5.9-0.9
		c-1.8-0.5-4.1-0.9-5.5-1.4C81.8,77.7,80.4,76.8,79.1,76.3z"/>
	<path id="XMLID_9_" class="st0" d="M227.2,79.5h-12.7V29.1c0-4.1,0.5-9.1,0.9-15l0,0c-0.9,3.6-1.4,5.9-2.3,7.3l-23.2,58.2h-9.1
		l-23.2-57.7c-0.5-1.8-1.4-4.1-2.3-7.7l0,0c0.5,3.2,0.5,8.2,0.5,15.4V80H144V1.4h18.2l20.4,51.8c1.4,4.1,2.7,6.8,3.2,9.1h0.5
		c1.4-4.1,2.3-7.3,3.2-9.1l20-51.8h17.7V79.5z"/>
</g>
</svg>
