<?xml version="1.0" encoding="utf-8"?>
<!-- Generator: Adobe Illustrator 19.0.0, SVG Export Plug-In . SVG Version: 6.00 Build 0)  -->
<svg version="1.1" id="Layer_1" xmlns="http://www.w3.org/2000/svg" xmlns:xlink="http://www.w3.org/1999/xlink" x="0px" y="0px"
	 viewBox="0 0 162 50" style="enable-background:new 0 0 162 50;" xml:space="preserve">
<style type="text/css">
	.st0{fill:#FFFFFF;}
	.st1{fill:#ED1C24;}
</style>
<g>
	<path d="M89.7,39.2c-3.4,1.9-7.2,2.8-11.5,2.8c-4.9,0-8.8-1.5-11.8-4.5c-3-3-4.5-7-4.5-12c0-5.1,1.6-9.3,4.9-12.5
		C70.2,9.6,74.4,8,79.5,8c3.7,0,6.7,0.5,9.2,1.6v5.6c-2.5-1.7-5.5-2.5-9-2.5c-3.5,0-6.4,1.2-8.6,3.5c-2.2,2.3-3.4,5.3-3.4,9
		c0,3.8,1,6.8,2.9,8.9c1.9,2.2,4.5,3.2,7.8,3.2c2.3,0,4.2-0.4,5.9-1.3v-7.8h-6.9v-4.6h12.4V39.2z"/>
	<path d="M95.3,40.1v-5.6c0.5,0.5,1.1,0.9,1.8,1.2s1.4,0.7,2.2,0.9c0.8,0.3,1.6,0.4,2.3,0.6s1.5,0.2,2.2,0.2c2.3,0,4-0.4,5.1-1.1
		c1.1-0.8,1.7-1.9,1.7-3.3c0-0.8-0.2-1.5-0.6-2c-0.4-0.6-0.9-1.1-1.6-1.6c-0.7-0.5-1.5-0.9-2.4-1.4c-0.9-0.4-1.9-0.9-2.9-1.4
		c-1.1-0.6-2.2-1.2-3.1-1.8c-1-0.6-1.8-1.3-2.5-2c-0.7-0.7-1.3-1.6-1.7-2.5c-0.4-0.9-0.6-2-0.6-3.3c0-1.5,0.3-2.9,1-4
		s1.6-2.1,2.8-2.8c1.1-0.7,2.4-1.3,3.9-1.7c1.5-0.4,2.9-0.5,4.5-0.5c3.4,0,6,0.4,7.5,1.2v5.4c-1.9-1.3-4.3-2-7.2-2
		c-0.8,0-1.6,0.1-2.4,0.2c-0.8,0.2-1.5,0.4-2.2,0.8c-0.6,0.4-1.2,0.8-1.5,1.4s-0.6,1.2-0.6,2c0,0.7,0.2,1.4,0.5,1.9
		c0.3,0.5,0.8,1,1.3,1.5c0.6,0.4,1.3,0.9,2.2,1.3c0.8,0.4,1.8,0.9,2.9,1.4c1.1,0.6,2.2,1.2,3.2,1.9c1,0.7,1.9,1.4,2.7,2.2
		c0.8,0.8,1.4,1.7,1.8,2.7s0.7,2.1,0.7,3.3c0,1.7-0.3,3.1-1,4.2c-0.7,1.1-1.6,2.1-2.7,2.8c-1.1,0.7-2.5,1.2-3.9,1.6
		c-1.5,0.3-3.1,0.5-4.7,0.5c-0.6,0-1.2,0-2-0.1c-0.8-0.1-1.6-0.2-2.5-0.4c-0.8-0.2-1.6-0.4-2.4-0.6C96.4,40.7,95.8,40.4,95.3,40.1z"
		/>
	<path d="M157.8,41.5h-5.4V20.2c0-1.7,0.1-3.9,0.3-6.4h-0.1c-0.3,1.4-0.6,2.5-0.9,3.1l-9.8,24.6h-3.8L128.3,17
		c-0.3-0.7-0.6-1.8-0.9-3.3h-0.1c0.1,1.3,0.2,3.5,0.2,6.4v21.3h-5V8.5h7.7l8.7,21.9c0.7,1.7,1.1,2.9,1.3,3.8h0.1
		c0.6-1.7,1-3,1.4-3.9l8.8-21.8h7.4V41.5z"/>
</g>
<g>
	<rect width="50" height="50"/>
	<g>
		<path class="st0" d="M23.7,39.5c-9.8-0.2-14.5-8-15.4-14.5c-1.1-7.3,3.3-15.5,9.9-18c5.6-2.2,11.2-1.8,16.4,1.3
			c5.8,3.3,7.8,8.6,7.3,15c-0.3,5.8-3,10.5-7.7,13.8c-1.8,1.3-3.8,1.9-5.9,2.2c-0.4-0.5-0.5-1.1-0.5-1.8c0.7,0,1.3-0.1,1.9-0.3
			c3.8-1.5,6.2-4.2,7.3-8c1-3.3,0.9-6.7,0.4-10.1c-1.1-7.7-7.7-12.7-14.8-11.5c-4.2,0.7-7.4,2.9-8.9,6.9c-2.1,5.5-1.8,11.1,0.9,16.3
			c2,3.8,5.3,6.3,9.7,6.9C24.3,38.4,23.8,38.9,23.7,39.5z"/>
		<path class="st1" d="M27.8,37.6c0,0.6,0.1,1.2,0.5,1.8c-0.1,0.9,0.4,1.7,0.6,2.6c0.1,0.4,0.3,0.8,0.3,1.2c0.3,1.3,0.3,1.3-1.1,1.3
			c-1.7,0-3.3,0-4.9,0c-0.7,0-0.9-0.1-0.5-0.8c0.6-1.3,0.8-2.6,1.1-3.9c0.1-0.6,0.6-1.2,0.5-1.8c0.6-1.8,0.9-3.6,1.8-5.5
			c0.5,1.7,1,3.1,1.4,4.6C27.4,37.1,27.4,37.3,27.8,37.6z"/>
	</g>
</g>
</svg>
