<?xml version="1.0" encoding="utf-8"?>
<!-- Generator: Adobe Illustrator 19.0.0, SVG Export Plug-In . SVG Version: 6.00 Build 0)  -->
<svg version="1.1" id="Layer_1" xmlns="http://www.w3.org/2000/svg" xmlns:xlink="http://www.w3.org/1999/xlink" x="0px" y="0px"
	 viewBox="0 0 124.9 124.9" style="enable-background:new 0 0 124.9 124.9;" xml:space="preserve">
<style type="text/css">
	.st0{fill:#1F9DD9;}
	.st1{fill:#231F20;}
	.st2{fill:#FFFFFF;}
	.st3{fill:#ED1C24;}
</style>
<g id="XMLID_6_">
	<circle id="XMLID_4_" class="st0" cx="62.4" cy="62.4" r="62.4"/>
	<circle id="XMLID_3_" class="st1" cx="62.4" cy="62.4" r="54.1"/>
	<g id="XMLID_7_">
		<path id="XMLID_2_" class="st2" d="M59.9,90.6C40.8,90.4,31.8,75,29.8,62.5c-2-14.2,6.5-30.1,19.4-35C60.1,23.3,70.8,24,81,30
			c11.2,6.5,15.2,16.7,14.2,29.1C94.4,70.5,89.5,79.4,80,85.9c-3.5,2.5-7.2,3.7-11.4,4.2c-0.7-1-1-2-1-3.5c1.2,0,2.5-0.2,3.7-0.7
			c7.2-3,11.9-8.2,14.2-15.7c2-6.5,1.7-12.9,0.7-19.6c-2-15.2-14.9-24.9-28.8-22.4C49.2,29.7,43,34,40,41.7
			c-4,10.7-3.5,21.6,1.7,31.8c4,7.5,10.2,12.4,18.9,13.4C61.1,88.4,60.1,89.4,59.9,90.6z"/>
		<path id="XMLID_1_" class="st3" d="M67.8,86.9c0,1.2,0.2,2.2,1,3.5c-0.2,1.7,0.7,3.5,1.2,5c0.2,0.7,0.5,1.5,0.7,2.2
			c0.7,2.5,0.7,2.5-2,2.5c-3.2,0-6.2,0-9.4,0c-1.2,0-1.7-0.2-1-1.7c1.2-2.5,1.7-5,2-7.7c0.2-1.2,1.2-2.2,1-3.5
			c1.2-3.5,1.7-7,3.5-10.7c1,3.2,2,6,2.7,8.9C67.4,85.9,67.4,86.4,67.8,86.9z"/>
	</g>
</g>
</svg>
