<?xml version="1.0" encoding="utf-8"?>
<!-- Generator: Adobe Illustrator 19.0.0, SVG Export Plug-In . SVG Version: 6.00 Build 0)  -->
<svg version="1.1" id="Layer_1" xmlns="http://www.w3.org/2000/svg" xmlns:xlink="http://www.w3.org/1999/xlink" x="0px" y="0px"
	 viewBox="0 0 95.8 77" style="enable-background:new 0 0 95.8 77;" xml:space="preserve">
<style type="text/css">
	.st0{fill:#009FE3;}
	.st1{fill:#231F20;}
	.st2{fill:#FFFFFF;}
	.st3{fill:#F30A0A;}
</style>
<g>
	<circle class="st0" cx="49.2" cy="29.5" r="27.3"/>
	<circle class="st1" cx="49.2" cy="29.5" r="21.7"/>
	<g>
		<path class="st2" d="M48.1,40.9c-7.7-0.1-11.3-6.3-12.1-11.3c-0.8-5.7,2.6-12.1,7.8-14.1c4.4-1.7,8.7-1.4,12.8,1
			c4.5,2.6,6.1,6.7,5.7,11.7c-0.3,4.6-2.3,8.2-6.1,10.8c-1.4,1-2.9,1.5-4.6,1.7c-0.3-0.4-0.4-0.8-0.4-1.4c0.5,0,1-0.1,1.5-0.3
			c2.9-1.2,4.8-3.3,5.7-6.3c0.8-2.6,0.7-5.2,0.3-7.9c-0.8-6.1-6-10-11.6-9c-3.3,0.6-5.8,2.3-7,5.4c-1.6,4.3-1.4,8.7,0.7,12.8
			c1.6,3,4.1,5,7.6,5.4C48.6,40,48.2,40.4,48.1,40.9z"/>
		<path class="st3" d="M51.3,39.4c0,0.5,0.1,0.9,0.4,1.4c-0.1,0.7,0.3,1.4,0.5,2c0.1,0.3,0.2,0.6,0.3,0.9c0.3,1,0.3,1-0.8,1
			c-1.3,0-2.5,0-3.8,0c-0.5,0-0.7-0.1-0.4-0.7c0.5-1,0.7-2,0.8-3.1c0.1-0.5,0.5-0.9,0.4-1.4c0.5-1.4,0.7-2.8,1.4-4.3
			c0.4,1.3,0.8,2.4,1.1,3.6C51.1,39,51.1,39.2,51.3,39.4z"/>
	</g>
</g>
<g>
	<path class="st2" d="M28.7,64.8c-0.4-2.3-0.7-3.5-2.9-3.5c-2.4,0-4.1,2.5-4.1,6.7c0,3.7,1.3,6.9,3.8,6.9c1,0,1.7-0.4,2.2-0.8v-2.4
		c0-1.2-0.1-1.3-1.5-1.3v-0.8h4.9v0.8c-1.1,0-1.2,0.1-1.2,1v2.7c-1.1,1-2.7,1.8-4.6,1.8c-4.2,0-6.2-3.4-6.2-7.9
		c0-4.4,2.3-7.8,6.8-7.8c1.2,0,2.3,0.3,3.3,0.7c0.1,1.2,0.3,2.3,0.5,3.5L28.7,64.8z"/>
	<path class="st2" d="M41.4,71.8C42,74.3,43,75,44.6,75c1.4,0,2.6-0.9,2.6-2.6c0-1.7-1-2.4-3-3.7c-2.3-1.5-3.6-2.4-3.6-4.7
		c0-1.6,1.2-3.7,4.7-3.7c1.3,0,2.3,0.2,3.2,0.6c0.1,0.8,0.2,2,0.4,3.1l-1,0.2c-0.4-2.2-0.9-2.9-2.7-2.9c-1.3,0-2.4,0.7-2.4,2.1
		c0,1.4,0.8,1.9,2.7,3.3c1.6,1.1,2.5,1.7,3.1,2.5c0.5,0.7,0.8,1.5,0.8,2.6c0,2.3-1.8,4.2-5.1,4.2c-1.2,0-2.5-0.3-3.6-0.6
		C40.8,74,40.6,73,40.3,72L41.4,71.8z"/>
	<path class="st2" d="M72.4,60.6h4.1v0.8c-1.5,0-1.6,0.2-1.6,1.7v10.1c0,1.5,0.1,1.7,1.6,1.7v0.8h-5.6v-0.8c1.5,0,1.6-0.2,1.6-1.7
		v-9.8h-0.1l-4.8,12.4h-0.8l-5-12.5h-0.1v9.9c0,1.5,0.1,1.7,1.5,1.7v0.8H59v-0.8c1.4,0,1.6-0.2,1.6-1.7V63c0-1.4-0.1-1.6-1.6-1.6
		v-0.8h4.1l4.7,11.7h0.1L72.4,60.6z"/>
</g>
</svg>
