<?xml version="1.0" encoding="utf-8"?>
<!-- Generator: Adobe Illustrator 19.0.0, SVG Export Plug-In . SVG Version: 6.00 Build 0)  -->
<svg version="1.1" id="Layer_1" xmlns="http://www.w3.org/2000/svg" xmlns:xlink="http://www.w3.org/1999/xlink" x="0px" y="0px"
	 viewBox="0 0 366.3 124.9" style="enable-background:new 0 0 366.3 124.9;" xml:space="preserve">
<style type="text/css">
	.st0{fill:#1F9DD9;}
	.st1{fill:#231F20;}
	.st2{fill:#FFFFFF;}
	.st3{fill:#ED1C24;}
</style>
<g id="XMLID_5_">
	<g id="XMLID_6_">
		<circle id="XMLID_4_" class="st0" cx="62.4" cy="62.4" r="62.4"/>
		<circle id="XMLID_3_" class="st1" cx="62.4" cy="62.4" r="54.1"/>
		<g id="XMLID_7_">
			<path id="XMLID_2_" class="st2" d="M59.9,90.6C40.8,90.4,31.8,75,29.8,62.5c-2-14.2,6.5-30.1,19.4-35C60.1,23.3,70.8,24,81,30
				c11.2,6.5,15.2,16.7,14.2,29.1C94.4,70.5,89.5,79.4,80,85.9c-3.5,2.5-7.2,3.7-11.4,4.2c-0.7-1-1-2-1-3.5c1.2,0,2.5-0.2,3.7-0.7
				c7.2-3,11.9-8.2,14.2-15.7c2-6.5,1.7-12.9,0.7-19.6c-2-15.2-14.9-24.9-28.8-22.4C49.2,29.7,43,34,40,41.7
				c-4,10.7-3.5,21.6,1.7,31.8c4,7.5,10.2,12.4,18.9,13.4C61.1,88.4,60.1,89.4,59.9,90.6z"/>
			<path id="XMLID_1_" class="st3" d="M67.8,86.9c0,1.2,0.2,2.2,1,3.5c-0.2,1.7,0.7,3.5,1.2,5c0.2,0.7,0.5,1.5,0.7,2.2
				c0.7,2.5,0.7,2.5-2,2.5c-3.2,0-6.2,0-9.4,0c-1.2,0-1.7-0.2-1-1.7c1.2-2.5,1.7-5,2-7.7c0.2-1.2,1.2-2.2,1-3.5
				c1.2-3.5,1.7-7,3.5-10.7c1,3.2,2,6,2.7,8.9C67.4,85.9,67.4,86.4,67.8,86.9z"/>
		</g>
	</g>
	<g id="XMLID_8_">
		<path id="XMLID_11_" class="st2" d="M205,96.1c-8.2,4.5-17.3,6.8-27.3,6.8c-11.4,0-20.9-3.6-28.2-10.9
			c-6.8-7.3-10.4-16.8-10.4-28.6c0-12.3,4.1-21.8,11.8-29.5s17.7-11.8,30-11.8c8.6,0,15.9,1.4,21.8,3.6v13.2
			c-5.9-4.1-13.2-5.9-21.4-5.9c-8.2,0-15,2.7-20.4,8.2c-5.5,5.9-8.2,12.7-8.2,21.8c0,9.1,2.3,15.9,6.8,21.4c4.5,5,10.9,7.7,18.6,7.7
			c5.5,0,10-0.9,14.1-3.2V70.2h-16.8V59.3H205V96.1z"/>
		<path id="XMLID_10_" class="st2" d="M218.2,98.3V85.2c1.4,0.9,2.7,2.3,4.1,2.7c1.8,0.9,3.2,1.8,5.5,2.3c1.8,0.5,3.6,0.9,5.5,1.4
			c1.8,0.5,3.6,0.5,5,0.5c5.5,0,9.5-0.9,12.3-2.7c2.7-1.8,4.1-4.5,4.1-7.7c0-1.8-0.5-3.6-1.4-5c-0.9-1.4-2.3-2.7-3.6-3.6
			c-1.8-0.9-3.6-2.3-5.5-3.2c-2.3-0.9-4.5-2.3-6.8-3.2c-2.7-1.4-5-2.7-7.3-4.1c-2.3-1.4-4.1-3.2-5.9-5c-1.8-1.8-3.2-3.6-4.1-5.9
			c-0.9-2.3-1.4-5-1.4-7.7c0-3.6,0.9-6.8,2.3-9.5c1.8-2.7,3.6-5,6.4-6.8s5.9-3.2,9.1-4.1c3.6-0.9,6.8-1.4,10.4-1.4
			c8.2,0,14.1,0.9,17.7,2.7v12.7c-4.5-3.2-10-5-17.3-5c-1.8,0-3.6,0-5.9,0.5c-1.8,0.5-3.6,0.9-5,1.8c-1.4,0.9-2.7,1.8-3.6,3.2
			c-0.9,1.4-1.4,2.7-1.4,4.5s0.5,3.2,0.9,4.5c0.9,1.4,1.8,2.3,3.2,3.6c1.4,0.9,3.2,2.3,5,3.2c1.8,0.9,4.5,2.3,6.8,3.2
			c2.7,1.4,5.5,2.7,7.7,4.5c2.3,1.4,4.5,3.2,6.4,5c1.8,1.8,3.2,4.1,4.5,6.4c0.9,2.3,1.8,5,1.8,7.7c0,4.1-0.9,7.3-2.3,10
			c-1.8,2.7-3.6,5-6.4,6.8s-5.9,2.7-9.5,3.6c-3.6,0.9-7.3,1.4-11.4,1.4c-1.4,0-2.7,0-5-0.5c-1.8,0-3.6-0.5-5.9-0.9
			c-1.8-0.5-4.1-0.9-5.5-1.4C220.9,99.7,219.6,98.8,218.2,98.3z"/>
		<path id="XMLID_9_" class="st2" d="M366.3,101.5h-12.7V51.1c0-4.1,0.5-9.1,0.9-15l0,0c-0.9,3.6-1.4,5.9-2.3,7.3l-23.2,58.2H320
			l-23.2-57.7c-0.5-1.8-1.4-4.1-2.3-7.7l0,0c0.5,3.2,0.5,8.2,0.5,15.4V102h-11.8V23.4h18.2l20.4,51.8c1.4,4.1,2.7,6.8,3.2,9.1h0.5
			c1.4-4.1,2.3-7.3,3.2-9.1l20-51.8h17.7V101.5z"/>
	</g>
</g>
</svg>
