<svg width="36" height="41" viewBox="0 0 36 41" fill="none" xmlns="http://www.w3.org/2000/svg">
<path fill-rule="evenodd" clip-rule="evenodd" d="M20.608 22.918H32.8C33.5843 22.918 34.3364 23.2296 34.8909 23.7841C35.4455 24.3387 35.757 25.0908 35.757 25.875V37.425C35.757 38.2093 35.4455 38.9614 34.8909 39.5159C34.3364 40.0705 33.5843 40.382 32.8 40.382H20.6C19.8158 40.382 19.0636 40.0705 18.5091 39.5159C17.9545 38.9614 17.643 38.2093 17.643 37.425V25.865C17.643 25.0808 17.9545 24.3287 18.5091 23.7741C19.0636 23.2196 19.8158 22.908 20.6 22.908L20.608 22.918ZM27.751 9.26203C27.966 9.32314 28.1555 9.45221 28.291 9.62994C28.4266 9.80767 28.5009 10.0245 28.503 10.248V11.986H31.082C31.3789 11.9841 31.6733 12.0412 31.9479 12.1539C32.2226 12.2667 32.4721 12.433 32.682 12.643C33.1036 13.0688 33.3397 13.6439 33.339 14.243V19.779H31.372V14.267C31.373 14.2242 31.3652 14.1817 31.3492 14.142C31.3332 14.1023 31.3092 14.0662 31.2788 14.0361C31.2484 14.006 31.2121 13.9823 31.1723 13.9667C31.1324 13.951 31.0898 13.9437 31.047 13.945H28.5V19.78H26.43V11.5H17.812C17.6741 11.5017 17.5372 11.4761 17.4093 11.4245C17.2813 11.3729 17.1649 11.2964 17.0668 11.1995C16.9686 11.1025 16.8907 10.9871 16.8376 10.8598C16.7844 10.7325 16.757 10.596 16.757 10.458V2.06703H2.07701V33.439H14.377V35.512H5.37701V38.112C5.37591 38.1546 5.38349 38.197 5.39928 38.2365C5.41507 38.2761 5.43875 38.312 5.46887 38.3422C5.499 38.3723 5.53493 38.396 5.5745 38.4118C5.61406 38.4275 5.65642 38.4351 5.69901 38.434H14.37V40.382H5.71401C5.11369 40.3753 4.53979 40.1341 4.1149 39.7099C3.69001 39.2858 3.4478 38.7123 3.44001 38.112V35.525H1.86001C1.36753 35.5254 0.894983 35.3305 0.546009 34.983C0.372325 34.8112 0.234594 34.6065 0.140851 34.3809C0.0471074 34.1553 -0.000770799 33.9133 9.38347e-06 33.669V1.85603C8.81664e-06 1.61196 0.0481479 1.37028 0.141671 1.14484C0.235193 0.9194 0.372263 0.714618 0.545033 0.54222C0.717802 0.369822 0.922878 0.233194 1.14852 0.140156C1.37416 0.0471193 1.61594 -0.000499437 1.86001 2.65767e-05H17.812C17.9655 -0.001084 18.1172 0.0326251 18.2558 0.0986178C18.3943 0.16461 18.5161 0.261168 18.612 0.381027L27.756 9.25203L27.751 9.26203ZM6.57101 16.962C6.48171 16.9642 6.39373 16.9841 6.31219 17.0206C6.23066 17.0571 6.15719 17.1094 6.09605 17.1746C6.03492 17.2397 5.98735 17.3163 5.95609 17.4C5.92484 17.4837 5.91054 17.5728 5.91401 17.662C5.90812 17.7519 5.92075 17.8419 5.95112 17.9267C5.98149 18.0114 6.02895 18.089 6.09055 18.1546C6.15216 18.2203 6.22659 18.2726 6.30924 18.3082C6.39189 18.3439 6.48099 18.3622 6.57101 18.362H18.729C18.8183 18.3598 18.9063 18.3399 18.9878 18.3034C19.0694 18.267 19.1428 18.2146 19.204 18.1495C19.2651 18.0844 19.3127 18.0077 19.3439 17.924C19.3752 17.8403 19.3895 17.7513 19.386 17.662C19.3919 17.5722 19.3793 17.4821 19.3489 17.3974C19.3185 17.3126 19.2711 17.235 19.2095 17.1694C19.1479 17.1038 19.0734 17.0515 18.9908 17.0158C18.9081 16.9801 18.819 16.9618 18.729 16.962H6.57101ZM6.57101 21.979C6.38536 21.979 6.20731 22.0528 6.07604 22.1841C5.94476 22.3153 5.87101 22.4934 5.87101 22.679C5.87101 22.8647 5.94476 23.0427 6.07604 23.174C6.20731 23.3053 6.38536 23.379 6.57101 23.379H14.358V21.979H6.57101ZM6.57101 26.993C6.38536 26.993 6.20731 27.0668 6.07604 27.1981C5.94476 27.3293 5.87101 27.5074 5.87101 27.693C5.87101 27.8787 5.94476 28.0567 6.07604 28.188C6.20731 28.3193 6.38536 28.393 6.57101 28.393H14.358V26.993H6.57101ZM6.57101 11.948C6.38536 11.948 6.20731 12.0218 6.07604 12.1531C5.94476 12.2843 5.87101 12.4624 5.87101 12.648C5.87101 12.8337 5.94476 13.0117 6.07604 13.143C6.20731 13.2743 6.38536 13.348 6.57101 13.348H13.763C13.9487 13.348 14.1267 13.2743 14.258 13.143C14.3893 13.0117 14.463 12.8337 14.463 12.648C14.463 12.4624 14.3893 12.2843 14.258 12.1531C14.1267 12.0218 13.9487 11.948 13.763 11.948H6.57101ZM6.57101 6.93403C6.4832 6.93731 6.39694 6.95818 6.31734 6.99539C6.23774 7.0326 6.16641 7.0854 6.10757 7.15067C6.04874 7.21594 6.0036 7.29235 5.97481 7.37537C5.94603 7.45839 5.9342 7.54635 5.94001 7.63403C5.9342 7.72171 5.94603 7.80966 5.97481 7.89268C6.0036 7.97571 6.04874 8.05211 6.10757 8.11738C6.16641 8.18265 6.23774 8.23545 6.31734 8.27266C6.39694 8.30988 6.4832 8.33074 6.57101 8.33403H10.514C10.6016 8.33035 10.6875 8.3092 10.7667 8.27181C10.846 8.23443 10.917 8.18157 10.9755 8.11634C11.034 8.05111 11.0789 7.97484 11.1075 7.89201C11.1361 7.80918 11.1478 7.72146 11.142 7.63403C11.1478 7.54659 11.1361 7.45888 11.1075 7.37604C11.0789 7.29321 11.034 7.21694 10.9755 7.15171C10.917 7.08648 10.846 7.03362 10.7667 6.99624C10.6875 6.95885 10.6016 6.9377 10.514 6.93403H6.57101ZM18.85 3.64703L25.05 9.42703H18.844V3.63403L18.85 3.64703ZM24.567 31.8C24.376 31.5 24.028 31.1 24.028 30.749C24.0295 30.635 24.0659 30.5242 24.1322 30.4314C24.1985 30.3386 24.2916 30.2684 24.399 30.23C24.383 29.93 24.369 29.63 24.369 29.33V28.804C24.3756 28.6924 24.3954 28.582 24.428 28.475C24.5651 28.0274 24.8638 27.6467 25.266 27.407C25.411 27.3202 25.5641 27.2475 25.723 27.19C26.015 27.085 25.871 26.599 26.186 26.59C27.104 26.6975 27.9592 27.1107 28.614 27.763C28.9173 28.0965 29.0899 28.5284 29.1 28.979L29.07 30.274C29.1397 30.2888 29.2046 30.321 29.2586 30.3674C29.3126 30.4139 29.354 30.4733 29.379 30.54C29.479 30.947 29.05 31.457 28.86 31.782C28.67 32.107 27.983 33.054 27.983 33.06C27.9861 33.115 28.008 33.1673 28.045 33.208C29.123 34.693 32.293 33.757 32.293 36.708H21.1C21.1 33.751 24.271 34.694 25.348 33.208C25.401 33.129 25.427 33.086 25.424 33.054C25.421 33.022 24.639 31.897 24.557 31.782L24.567 31.8Z" fill="white"/>
</svg>
