<svg width="41" height="45" viewBox="0 0 41 45" fill="none" xmlns="http://www.w3.org/2000/svg">
<path d="M14.625 24.692C14.3578 24.692 14.1016 24.5859 13.9126 24.3969C13.7237 24.208 13.6175 23.9517 13.6175 23.6845C13.6175 23.4173 13.7237 23.161 13.9126 22.9721C14.1016 22.7832 14.3578 22.677 14.625 22.677H18.153C17.9353 23.1015 17.7413 23.5379 17.572 23.984C17.482 24.215 17.402 24.45 17.326 24.706L14.625 24.692ZM32.376 41.476C32.226 42.2912 31.7947 43.0279 31.1574 43.5578C30.52 44.0878 29.7169 44.3773 28.888 44.376C28.4697 44.378 28.0542 44.3073 27.66 44.167C27.2639 44.0265 26.8969 43.8147 26.577 43.542C26.26 43.28 25.9895 42.9662 25.777 42.614C25.5717 42.2562 25.4312 41.8648 25.362 41.458C25.3451 41.3589 25.3678 41.2571 25.4252 41.1746C25.4827 41.0921 25.5702 41.0355 25.669 41.017H32.014C32.1098 41.017 32.2016 41.055 32.2693 41.1227C32.337 41.1904 32.375 41.2823 32.375 41.378C32.3787 41.4112 32.3787 41.4448 32.375 41.478L32.376 41.476ZM30.871 20.893C31.177 20.9711 31.4776 21.0686 31.771 21.185C32.1961 21.3549 32.6071 21.5582 33 21.793L33.047 21.822C33.4153 22.0499 33.7653 22.306 34.094 22.588C34.4316 22.8767 34.7444 23.1931 35.029 23.534C35.3154 23.8781 35.5717 24.2461 35.795 24.634C36.0213 25.0257 36.2156 25.4351 36.376 25.858C36.5369 26.2938 36.6577 26.7433 36.737 27.201C36.8203 27.667 36.8614 28.1396 36.86 28.613V31.6C36.8612 32.0249 36.8876 32.4493 36.939 32.871C36.9908 33.2808 37.0666 33.6872 37.166 34.088C37.264 34.4718 37.3979 34.8454 37.566 35.204C37.7411 35.5832 37.9503 35.9457 38.191 36.287C38.4566 36.6565 38.7614 36.9962 39.1 37.3C39.506 37.6735 39.9407 38.0146 40.4 38.32C40.5119 38.3948 40.5964 38.5039 40.6409 38.6309C40.6854 38.7579 40.6874 38.8959 40.6467 39.0241C40.606 39.1524 40.5247 39.2639 40.4151 39.342C40.3055 39.4201 40.1736 39.4604 40.039 39.457H17.639C17.5572 39.4575 17.476 39.4419 17.4002 39.4109C17.3244 39.3799 17.2554 39.3343 17.1973 39.2765C17.1393 39.2188 17.0932 39.1502 17.0617 39.0746C17.0302 38.999 17.014 38.9179 17.014 38.836C17.0112 38.7231 17.0388 38.6114 17.0941 38.5129C17.1493 38.4143 17.2302 38.3325 17.328 38.276C17.7873 37.9722 18.2219 37.6328 18.628 37.261C18.965 36.9548 19.2669 36.612 19.528 36.239L19.553 36.207C19.7803 35.8744 19.9809 35.5243 20.153 35.16C20.3199 34.8009 20.4537 34.4273 20.553 34.044C20.553 34.044 20.553 34.044 20.553 34.022C20.6493 33.6394 20.7204 33.2509 20.766 32.859C20.8173 32.4323 20.8427 32.0028 20.842 31.573V28.621C20.8426 28.1462 20.8847 27.6724 20.968 27.205C21.0462 26.7458 21.1671 26.2948 21.329 25.858C21.4916 25.4311 21.6885 25.018 21.918 24.623C22.1447 24.231 22.4043 23.859 22.694 23.511C22.9838 23.1652 23.3016 22.8437 23.644 22.55C24.3433 21.9525 25.1403 21.4799 26 21.153C26.2996 21.0401 26.6058 20.9459 26.917 20.871C27.0069 20.5197 27.199 20.203 27.469 19.961C27.8705 19.6246 28.3879 19.4591 28.91 19.5C29.4264 19.4724 29.9343 19.6398 30.333 19.969C30.5993 20.2142 30.7906 20.5297 30.885 20.879L30.871 20.893ZM31.203 22.807C30.8782 22.6787 30.5439 22.5761 30.203 22.5C30.0721 22.4839 29.9504 22.4243 29.8573 22.3307C29.7643 22.2371 29.7054 22.115 29.69 21.984C29.6816 21.7817 29.6023 21.5888 29.466 21.439C29.3008 21.316 29.0977 21.2548 28.892 21.266C28.6943 21.2463 28.4963 21.3005 28.336 21.418C28.1984 21.5682 28.1202 21.7634 28.116 21.967C28.1024 22.0933 28.0482 22.2117 27.9617 22.3047C27.8752 22.3977 27.761 22.4602 27.636 22.483C27.2667 22.55 26.9042 22.6504 26.553 22.783C26.2086 22.9136 25.8764 23.0742 25.56 23.263C25.2447 23.4512 24.9463 23.6664 24.668 23.906C24.3913 24.1436 24.1341 24.4031 23.899 24.682C23.6672 24.965 23.4582 25.2659 23.274 25.582C23.0901 25.9028 22.9306 26.2371 22.797 26.582C22.6639 26.933 22.5634 27.2955 22.497 27.665C22.43 28.0416 22.3965 28.4235 22.397 28.806V31.619C22.3971 32.0806 22.369 32.5418 22.313 33C22.2593 33.4297 22.1784 33.8555 22.071 34.275V34.3C21.9563 34.7347 21.8017 35.1578 21.609 35.564C21.418 35.9669 21.196 36.3544 20.945 36.723L20.923 36.759C20.6236 37.1795 20.2807 37.5673 19.9 37.916H37.872C37.4883 37.5679 37.1433 37.1793 36.843 36.757C36.5752 36.3761 36.341 35.9725 36.143 35.551C35.9457 35.1514 35.786 34.7343 35.666 34.305C35.5591 33.8733 35.4783 33.4355 35.424 32.994C35.3716 32.5455 35.3438 32.0945 35.341 31.643V28.82C35.3428 28.4361 35.3093 28.0528 35.241 27.675C35.178 27.3056 35.0802 26.943 34.949 26.592C34.8198 26.2466 34.663 25.9122 34.48 25.592C34.2987 25.2751 34.091 24.974 33.859 24.692C33.6273 24.4133 33.3724 24.1547 33.097 23.919C32.8304 23.6917 32.5465 23.4855 32.248 23.302L32.208 23.277C31.8892 23.091 31.5573 22.9282 31.215 22.79L31.203 22.807ZM6.04904 23.692C5.95032 23.5283 5.91843 23.3328 5.95998 23.1462C6.00154 22.9595 6.11335 22.7961 6.27223 22.6897C6.43111 22.5833 6.62484 22.5421 6.81324 22.5748C7.00164 22.6074 7.17023 22.7114 7.28404 22.865L7.68404 23.472L9.29105 21.518C9.35043 21.4355 9.42611 21.366 9.51339 21.3139C9.60067 21.2617 9.69772 21.228 9.79853 21.2149C9.89935 21.2017 10.0018 21.2093 10.0995 21.2373C10.1973 21.2652 10.2883 21.3129 10.3669 21.3774C10.4455 21.4419 10.51 21.5219 10.5565 21.6123C10.603 21.7027 10.6305 21.8017 10.6373 21.9031C10.644 22.0046 10.6299 22.1063 10.5958 22.2021C10.5618 22.2979 10.5084 22.3857 10.439 22.46L8.21504 25.16C8.16591 25.2239 8.10602 25.2787 8.03804 25.322C7.8743 25.4317 7.67385 25.4722 7.48036 25.4347C7.28687 25.3973 7.11603 25.2849 7.00504 25.122L6.04404 23.678L6.04904 23.692ZM6.04904 16.614C5.98912 16.5331 5.94624 16.4409 5.92299 16.3429C5.89975 16.245 5.89663 16.1433 5.91382 16.0441C5.93101 15.9449 5.96816 15.8502 6.02301 15.7658C6.07786 15.6814 6.14927 15.609 6.23293 15.553C6.31658 15.4969 6.41073 15.4585 6.50968 15.4399C6.60863 15.4214 6.71032 15.4231 6.80859 15.4449C6.90686 15.4668 6.99967 15.5084 7.0814 15.5672C7.16312 15.626 7.23206 15.7008 7.28404 15.787L7.68404 16.387L9.29105 14.441C9.42006 14.3027 9.59693 14.2187 9.78567 14.2061C9.97442 14.1935 10.1609 14.2533 10.3071 14.3733C10.4533 14.4933 10.5484 14.6645 10.5729 14.852C10.5974 15.0396 10.5495 15.2295 10.439 15.383L8.21504 18.083C8.16583 18.1479 8.10599 18.2041 8.03804 18.249C7.95709 18.3037 7.86614 18.3419 7.77042 18.3615C7.67469 18.381 7.57605 18.3815 7.48012 18.363C7.3842 18.3444 7.29287 18.3071 7.21136 18.2532C7.12985 18.1994 7.05974 18.13 7.00504 18.049L6.04404 16.605L6.04904 16.614ZM6.04904 9.53301C5.98912 9.45211 5.94624 9.35989 5.92299 9.26193C5.89975 9.16397 5.89663 9.06232 5.91382 8.96312C5.93101 8.86392 5.96816 8.76924 6.02301 8.68482C6.07786 8.6004 6.14927 8.52798 6.23293 8.47197C6.31658 8.41595 6.41073 8.37749 6.50968 8.35892C6.60863 8.34036 6.71032 8.34207 6.80859 8.36395C6.90686 8.38583 6.99967 8.42743 7.0814 8.48622C7.16312 8.54502 7.23206 8.61979 7.28404 8.70601L7.68404 9.30601L9.29504 7.35201C9.35762 7.27663 9.43443 7.21432 9.52109 7.16862C9.60774 7.12293 9.70255 7.09475 9.8001 7.08569C9.89765 7.07664 9.99603 7.08689 10.0896 7.11586C10.1832 7.14482 10.2702 7.19194 10.3455 7.25451C10.4209 7.31709 10.4832 7.39389 10.5289 7.48055C10.5746 7.56721 10.6028 7.66202 10.6119 7.75957C10.6209 7.85712 10.6107 7.95549 10.5817 8.04908C10.5527 8.14267 10.5056 8.22963 10.443 8.30501L8.21904 11.005C8.16907 11.0692 8.10934 11.1252 8.04204 11.171C7.87757 11.2801 7.67661 11.3197 7.48306 11.2811C7.2895 11.2425 7.11909 11.1288 7.00904 10.965L6.04804 9.52601L6.04904 9.53301ZM14.625 9.70301C14.4927 9.70301 14.3617 9.67695 14.2395 9.62632C14.1173 9.57569 14.0062 9.50148 13.9126 9.40792C13.8191 9.31437 13.7449 9.2033 13.6942 9.08106C13.6436 8.95883 13.6175 8.82782 13.6175 8.69551C13.6175 8.5632 13.6436 8.43219 13.6942 8.30996C13.7449 8.18772 13.8191 8.07666 13.9126 7.9831C14.0062 7.88955 14.1173 7.81533 14.2395 7.7647C14.3617 7.71407 14.4927 7.68801 14.625 7.68801H25.36C25.6273 7.68801 25.8835 7.79416 26.0725 7.9831C26.2614 8.17204 26.3675 8.42831 26.3675 8.69551C26.3675 8.96272 26.2614 9.21898 26.0725 9.40792C25.8835 9.59686 25.6273 9.70301 25.36 9.70301H14.625ZM2.33604 1.05522e-05H31.055C31.3618 -0.000911941 31.6658 0.0587813 31.9494 0.175662C32.233 0.292542 32.4908 0.464307 32.7078 0.681091C32.9249 0.897874 33.097 1.15541 33.2142 1.43889C33.3315 1.72238 33.3916 2.02624 33.391 2.33301V17.019L33.221 16.943C32.7819 16.7674 32.332 16.6201 31.874 16.502C31.7746 16.1492 31.6093 15.8184 31.387 15.527V2.34401C31.3877 2.30023 31.3796 2.25675 31.3631 2.21617C31.3467 2.17558 31.3223 2.13871 31.2913 2.10775C31.2603 2.07678 31.2235 2.05235 31.1829 2.03591C31.1423 2.01946 31.0988 2.01134 31.055 2.01201H2.33604C2.24851 2.0128 2.16484 2.04813 2.10322 2.11031C2.04161 2.17248 2.00704 2.25648 2.00704 2.34401V31.21C2.00704 31.2975 2.04161 31.3815 2.10322 31.4437C2.16484 31.5059 2.24851 31.5412 2.33604 31.542H16.816V32.56C16.816 32.892 16.816 33.217 16.787 33.535H2.34304C2.03593 33.5377 1.73135 33.4794 1.44692 33.3635C1.16249 33.2477 0.903875 33.0765 0.686045 32.86C0.46704 32.6443 0.293497 32.3869 0.175671 32.103C0.0578442 31.8191 -0.00187409 31.5144 4.48181e-05 31.207V2.33601C-0.000879372 2.02898 0.0589122 1.7248 0.17598 1.44097C0.293048 1.15714 0.465081 0.89925 0.682183 0.682148C0.899284 0.465046 1.15717 0.293013 1.441 0.175946C1.72484 0.058878 2.02902 -0.000913638 2.33604 1.05522e-05ZM14.614 17.2C14.4774 17.2075 14.3406 17.187 14.2121 17.1399C14.0837 17.0927 13.9661 17.0198 13.8667 16.9257C13.7674 16.8316 13.6882 16.7183 13.6341 16.5925C13.58 16.4668 13.5521 16.3314 13.5521 16.1945C13.5521 16.0576 13.58 15.9222 13.6341 15.7965C13.6882 15.6708 13.7674 15.5574 13.8667 15.4633C13.9661 15.3692 14.0837 15.2963 14.2121 15.2492C14.3406 15.202 14.4774 15.1815 14.614 15.189H24.523C24.694 15.1873 24.8626 15.2295 25.0127 15.3115C25.1627 15.3935 25.2892 15.5126 25.3801 15.6575C25.471 15.8023 25.5232 15.9681 25.5318 16.1389C25.5404 16.3097 25.505 16.4798 25.429 16.633C25.14 16.716 24.855 16.814 24.573 16.918C24.346 17.005 24.122 17.099 23.898 17.2H14.614Z" fill="white"/>
</svg>
