<svg width="40" height="40" viewBox="0 0 40 40" fill="none" xmlns="http://www.w3.org/2000/svg">
<path d="M21.2602 13.7001C21.2594 13.9536 21.1819 14.2008 21.0379 14.4093C20.8938 14.6178 20.6899 14.7778 20.4532 14.8681V16.2201C20.456 16.2815 20.4465 16.3428 20.425 16.4003C20.4035 16.4578 20.3705 16.5104 20.3281 16.5548C20.2857 16.5993 20.2348 16.6346 20.1783 16.6588C20.1219 16.683 20.0611 16.6954 19.9997 16.6954C19.9383 16.6954 19.8775 16.683 19.821 16.6588C19.7646 16.6346 19.7136 16.5993 19.6712 16.5548C19.6288 16.5104 19.5959 16.4578 19.5744 16.4003C19.5529 16.3428 19.5433 16.2815 19.5462 16.2201V14.8661C19.3329 14.7829 19.1464 14.643 19.0068 14.4615C18.8672 14.2801 18.7799 14.0639 18.7541 13.8364C18.7284 13.609 18.7653 13.3788 18.8608 13.1707C18.9563 12.9626 19.1069 12.7846 19.2962 12.6558C19.4854 12.5271 19.7063 12.4524 19.9349 12.44C20.1635 12.4276 20.3912 12.4778 20.5933 12.5853C20.7954 12.6928 20.9644 12.8534 21.0819 13.0499C21.1994 13.2464 21.2611 13.4712 21.2602 13.7001ZM39.3602 36.3871C39.36 36.9562 39.1967 37.5132 38.8896 37.9922C38.5825 38.4712 38.1444 38.8521 37.6274 39.0897C37.1103 39.3273 36.536 39.4116 35.9725 39.3327C35.4089 39.2537 34.8799 39.0149 34.448 38.6444C34.0162 38.2738 33.6996 37.7873 33.5359 37.2423C33.3722 36.6973 33.3683 36.1168 33.5245 35.5697C33.6807 35.0225 33.9905 34.5317 34.4173 34.1553C34.844 33.7789 35.3698 33.5328 35.9322 33.4461V29.2771H20.4542V33.4571C21.1951 33.5714 21.8655 33.9612 22.3314 34.5485C22.7973 35.1358 23.0243 35.8773 22.967 36.6248C22.9097 37.3722 22.5723 38.0705 22.0223 38.5799C21.4723 39.0894 20.7503 39.3724 20.0007 39.3724C19.251 39.3724 18.529 39.0894 17.979 38.5799C17.4291 38.0705 17.0917 37.3722 17.0344 36.6248C16.9771 35.8773 17.2041 35.1358 17.6699 34.5485C18.1358 33.9612 18.8063 33.5714 19.5472 33.4571V29.2771H4.06817V33.4571C4.80899 33.5715 5.47933 33.9614 5.94512 34.5487C6.41091 35.136 6.63781 35.8775 6.58044 36.625C6.52308 37.3724 6.18567 38.0706 5.63571 38.5799C5.08575 39.0893 4.36377 39.3723 3.61417 39.3723C2.86456 39.3723 2.14258 39.0893 1.59262 38.5799C1.04266 38.0706 0.705255 37.3724 0.64789 36.625C0.590524 35.8775 0.817424 35.136 1.28321 34.5487C1.749 33.9614 2.41934 33.5715 3.16017 33.4571V28.8231C3.16003 28.7635 3.17169 28.7044 3.19446 28.6492C3.21722 28.5941 3.25066 28.544 3.29285 28.5018C3.33503 28.4596 3.38513 28.4262 3.44027 28.4034C3.49541 28.3807 3.55451 28.369 3.61417 28.3691H19.5462V23.7811H20.4532V28.3691H36.3852C36.4448 28.369 36.5039 28.3807 36.5591 28.4034C36.6142 28.4262 36.6643 28.4596 36.7065 28.5018C36.7487 28.544 36.7821 28.5941 36.8049 28.6492C36.8276 28.7044 36.8393 28.7635 36.8392 28.8231V33.4451C37.5407 33.5545 38.1802 33.9108 38.6424 34.4498C39.1046 34.9888 39.3591 35.6751 39.3602 36.3851V36.3871ZM3.61517 34.3181C3.20635 34.3181 2.80672 34.4394 2.4668 34.6665C2.12689 34.8936 1.86195 35.2164 1.70551 35.5941C1.54906 35.9718 1.50813 36.3874 1.58788 36.7884C1.66764 37.1893 1.8645 37.5577 2.15358 37.8467C2.44265 38.1358 2.81096 38.3327 3.21191 38.4124C3.61287 38.4922 4.02848 38.4512 4.40617 38.2948C4.78387 38.1383 5.10669 37.8734 5.33381 37.5335C5.56094 37.1936 5.68217 36.7939 5.68217 36.3851C5.68164 35.8371 5.46369 35.3117 5.07617 34.9241C4.68865 34.5366 4.16321 34.3187 3.61517 34.3181ZM20.0002 34.3181C19.5914 34.3181 19.1917 34.4394 18.8518 34.6665C18.5119 34.8936 18.247 35.2164 18.0905 35.5941C17.9341 35.9718 17.8931 36.3874 17.9729 36.7884C18.0526 37.1893 18.2495 37.5577 18.5386 37.8467C18.8277 38.1358 19.196 38.3327 19.5969 38.4124C19.9979 38.4922 20.4135 38.4512 20.7912 38.2948C21.1689 38.1383 21.4917 37.8734 21.7188 37.5335C21.9459 37.1936 22.0672 36.7939 22.0672 36.3851C22.0666 35.8371 21.8487 35.3117 21.4612 34.9241C21.0736 34.5366 20.5482 34.3187 20.0002 34.3181ZM38.4522 36.3851C38.4522 35.9763 38.3309 35.5767 38.1038 35.2368C37.8767 34.8969 37.5539 34.6319 37.1762 34.4755C36.7985 34.319 36.3829 34.2781 35.9819 34.3579C35.581 34.4376 35.2126 34.6345 34.9236 34.9235C34.6345 35.2126 34.4376 35.5809 34.3579 35.9819C34.2781 36.3828 34.3191 36.7984 34.4755 37.1761C34.632 37.5538 34.8969 37.8767 35.2368 38.1038C35.5767 38.3309 35.9763 38.4521 36.3852 38.4521C36.9332 38.4516 37.4586 38.2337 37.8462 37.8461C38.2337 37.4586 38.4516 36.9332 38.4522 36.3851ZM13.2442 21.2601V8.65614C13.2438 8.59614 13.2553 8.53667 13.2781 8.48116C13.3008 8.42566 13.3344 8.37523 13.3768 8.33281C13.4193 8.29038 13.4697 8.25681 13.5252 8.23404C13.5807 8.21126 13.6402 8.19974 13.7002 8.20014H16.4002V4.24514C16.4002 3.28903 16.78 2.37209 17.456 1.69602C18.1321 1.01995 19.0491 0.640137 20.0052 0.640137C20.9613 0.640137 21.8782 1.01995 22.5543 1.69602C23.2304 2.37209 23.6102 3.28903 23.6102 4.24514V8.20014H26.3102C26.3698 8.2 26.4289 8.21166 26.4841 8.23443C26.5392 8.2572 26.5893 8.29063 26.6315 8.33282C26.6737 8.375 26.7071 8.4251 26.7299 8.48024C26.7526 8.53538 26.7643 8.59448 26.7642 8.65414V21.2541C26.7643 21.3138 26.7526 21.3729 26.7299 21.428C26.7071 21.4832 26.6737 21.5333 26.6315 21.5755C26.5893 21.6176 26.5392 21.6511 26.4841 21.6738C26.4289 21.6966 26.3698 21.7083 26.3102 21.7081H13.7002C13.5804 21.7089 13.4651 21.6622 13.3797 21.5783C13.2942 21.4943 13.2455 21.3799 13.2442 21.2601ZM17.3002 8.20014H22.7002V4.24514C22.7158 3.88113 22.6577 3.51771 22.5292 3.17677C22.4007 2.83583 22.2045 2.52442 21.9525 2.26131C21.7005 1.99819 21.3978 1.7888 21.0627 1.64576C20.7276 1.50272 20.367 1.42897 20.0027 1.42897C19.6383 1.42897 19.2777 1.50272 18.9426 1.64576C18.6075 1.7888 18.3049 1.99819 18.0528 2.26131C17.8008 2.52442 17.6046 2.83583 17.4761 3.17677C17.3477 3.51771 17.2895 3.88113 17.3052 4.24514L17.3002 8.20014ZM14.1492 20.8001H25.8492V9.11014H14.1492V20.8001Z" fill="white"/>
</svg>
