<?xml version="1.0" encoding="UTF-8"?>
<!DOCTYPE svg PUBLIC "-//W3C//DTD SVG 1.1//EN" "http://www.w3.org/Graphics/SVG/1.1/DTD/svg11.dtd">
<!-- Creator: CorelDRAW 2020 (64-Bit) -->
<svg xmlns="http://www.w3.org/2000/svg" xml:space="preserve" width="38px" height="38px" version="1.1" style="shape-rendering:geometricPrecision; text-rendering:geometricPrecision; image-rendering:optimizeQuality; fill-rule:evenodd; clip-rule:evenodd"
viewBox="0 0 38 38"
 xmlns:xlink="http://www.w3.org/1999/xlink"
 xmlns:xodm="http://www.corel.com/coreldraw/odm/2003"
 enable-background="new 0 0 24 24">
 <defs>
  <style type="text/css">
   <![CDATA[
    .fil0 {fill:#FEFEFE;fill-rule:nonzero}
   ]]>
  </style>
 </defs>
 <g id="Layer_x0020_1">
  <metadata id="CorelCorpID_0Corel-Layer"/>
  <g id="_2336558589024">
   <path class="fil0" d="M20.71 37.39l-3.42 0c-1.16,0 -2.14,-0.87 -2.28,-2.03l-0.36 -2.87c-0.74,-0.24 -1.44,-0.53 -2.11,-0.87l-2.29 1.78c-0.92,0.72 -2.23,0.63 -3.03,-0.2l-2.41 -2.41c-0.83,-0.8 -0.91,-2.1 -0.19,-3.03l1.78 -2.29c-0.35,-0.67 -0.64,-1.38 -0.88,-2.11l-2.87 -0.36c-1.15,-0.14 -2.02,-1.12 -2.02,-2.28l0 -3.44c0,-1.16 0.87,-2.14 2.02,-2.27l2.87 -0.37c0.24,-0.73 0.53,-1.44 0.87,-2.1l-1.77 -2.29c-0.72,-0.93 -0.64,-2.24 0.19,-3.05l2.41 -2.41c0.8,-0.82 2.11,-0.9 3.03,-0.19l2.29 1.78c0.67,-0.34 1.37,-0.63 2.11,-0.87l0.36 -2.88c0.14,-1.15 1.12,-2.02 2.28,-2.02l3.42 0c1.16,0 2.14,0.87 2.28,2.03l0.36 2.87c0.74,0.24 1.44,0.53 2.11,0.87l2.29 -1.78c0.93,-0.72 2.23,-0.63 3.04,0.2l2.41 2.41c0.82,0.8 0.9,2.11 0.18,3.03l-1.77 2.29c0.34,0.67 0.63,1.38 0.87,2.11l2.87 0.37c1.15,0.13 2.02,1.11 2.02,2.27l0 3.44c0,1.16 -0.87,2.14 -2.02,2.27l-2.87 0.37c-0.24,0.73 -0.53,1.44 -0.87,2.1l1.77 2.29c0.72,0.93 0.64,2.24 -0.19,3.05l-2.41 2.41c-0.8,0.82 -2.11,0.91 -3.03,0.19l-2.29 -1.78c-0.67,0.34 -1.37,0.63 -2.1,0.87l-0.37 2.88c-0.14,1.15 -1.12,2.02 -2.28,2.02l0 0zm-8.25 -7.45c0.13,0 0.26,0.03 0.38,0.1 0.84,0.47 1.75,0.85 2.71,1.12 0.3,0.09 0.51,0.34 0.55,0.64l0.43 3.37c0.05,0.39 0.38,0.69 0.76,0.69l3.42 0c0.38,0 0.71,-0.3 0.76,-0.68l0.43 -3.37c0.04,-0.31 0.25,-0.56 0.55,-0.64 0.96,-0.28 1.87,-0.66 2.71,-1.13 0.27,-0.15 0.6,-0.13 0.84,0.06l2.68 2.09c0.31,0.24 0.74,0.22 1.01,-0.06l2.42 -2.42c0.28,-0.27 0.3,-0.71 0.06,-1.02l-2.08 -2.68c-0.19,-0.24 -0.21,-0.57 -0.06,-0.84 0.47,-0.84 0.85,-1.76 1.12,-2.72 0.09,-0.29 0.34,-0.51 0.64,-0.55l3.37 -0.43c0.38,-0.04 0.68,-0.38 0.68,-0.75l0 -3.44c0,-0.37 -0.3,-0.71 -0.67,-0.75l-3.38 -0.43c-0.3,-0.04 -0.55,-0.26 -0.64,-0.55 -0.27,-0.96 -0.65,-1.87 -1.12,-2.72 -0.15,-0.27 -0.13,-0.6 0.06,-0.84l2.08 -2.68c0.24,-0.31 0.22,-0.74 -0.05,-1.01l-2.42 -2.42c-0.27,-0.28 -0.7,-0.3 -1.01,-0.06l-2.68 2.08c-0.25,0.19 -0.58,0.21 -0.85,0.06 -0.84,-0.47 -1.75,-0.85 -2.71,-1.12 -0.3,-0.09 -0.51,-0.34 -0.55,-0.64l-0.43 -3.37c-0.05,-0.39 -0.38,-0.69 -0.76,-0.69l-3.42 0c-0.38,0 -0.71,0.3 -0.76,0.68l-0.43 3.37c-0.04,0.31 -0.25,0.56 -0.55,0.65 -0.96,0.27 -1.87,0.65 -2.71,1.12 -0.27,0.15 -0.6,0.13 -0.85,-0.06l-2.68 -2.09c-0.3,-0.24 -0.73,-0.21 -1,0.06l-2.42 2.43c-0.28,0.27 -0.3,0.7 -0.06,1.01l2.08 2.68c0.19,0.24 0.21,0.57 0.06,0.84 -0.47,0.85 -0.85,1.76 -1.12,2.72 -0.09,0.29 -0.34,0.51 -0.64,0.55l-3.37 0.43c-0.38,0.04 -0.68,0.38 -0.68,0.75l0 3.44c0,0.37 0.3,0.71 0.67,0.75l3.38 0.43c0.3,0.04 0.55,0.26 0.64,0.55 0.27,0.96 0.65,1.87 1.12,2.72 0.15,0.27 0.13,0.6 -0.06,0.84l-2.08 2.68c-0.24,0.31 -0.22,0.74 0.05,1.01l2.42 2.42c0.27,0.28 0.7,0.3 1.01,0.06l2.68 -2.08c0.14,-0.1 0.31,-0.16 0.47,-0.16l0 0z"/>
  </g>
  <g id="_2336558588784">
   <path class="fil0" d="M19 26.92c-4.37,0 -7.92,-3.55 -7.92,-7.92 0,-4.37 3.55,-7.92 7.92,-7.92 4.37,0 7.92,3.55 7.92,7.92 0,4.37 -3.55,7.92 -7.92,7.92zm0 -14.25c-3.49,0 -6.33,2.84 -6.33,6.33 0,3.49 2.84,6.33 6.33,6.33 3.49,0 6.33,-2.84 6.33,-6.33 0,-3.49 -2.84,-6.33 -6.33,-6.33z"/>
  </g>
 </g>
</svg>
