<?xml version="1.0" encoding="utf-8"?>
<!-- Generator: Adobe Illustrator 19.0.0, SVG Export Plug-In . SVG Version: 6.00 Build 0)  -->
<svg version="1.1" id="Layer_1" xmlns="http://www.w3.org/2000/svg" xmlns:xlink="http://www.w3.org/1999/xlink" x="0px" y="0px"
	 viewBox="0 0 100 100" style="enable-background:new 0 0 100 100;" xml:space="preserve">
<style type="text/css">
	.st0{fill:#587C87;}
</style>
<g id="XMLID_594_">
	<path id="XMLID_476_" class="st0" d="M24.3,15.1c0.7,4.4-0.7,6.2-5.6,5.9c-5.3-0.3-8.7,3.5-8.7,9.2c-0.1,16.6-0.1,33.1,0,49.7
		c0,5.5,3.5,9.1,8.9,9.2c20.9,0.1,41.8,0.1,62.7,0c4.4,0,8.1-3.8,8.2-8.1c0.1-17.3,0.1-34.5,0-51.8c0-4.4-3.2-7.6-7.5-8.3
		c-2.2-0.3-5.1,1.1-6.3-0.9c-1-1.7-0.4-4.4-0.5-6.6c0-0.8-0.1-1.7-0.1-2.5c0,0,0,0,0,0c-1.6,0-3.3,0-4.9-0.1c-1.2,2.2-0.8,4.7-0.7,7
		c0.1,2.4-0.9,3.1-3.2,3.1c-11-0.1-22.1-0.1-33.1,0c-2.5,0-3.6-0.7-3.4-3.3c0.1-2.2-0.1-4.5-0.1-6.7c0,0,0,0,0,0c-1.8,0-3.7,0-5.5,0
		c0,0,0,0,0,0C24.4,12.3,24.1,13.8,24.3,15.1z M84.2,78.6c0,3.4-1,4.8-4.6,4.8c-19.8-0.1-39.5-0.1-59.3,0c-3.2,0-4.5-1-4.5-4.4
		c0.1-11.6,0.1-23.3,0-34.9c0-3.1,1.1-3.7,3.9-3.7c10.1,0.1,20.2,0.1,30.3,0.1c10.1,0,20.2,0.1,30.3-0.1c2.9,0,3.9,0.7,3.9,3.8
		C84,55.6,84.1,67.1,84.2,78.6z M33.6,26.1c10.9,0.1,21.8,0.1,32.8,0c2,0,3.5,0.2,3.7,2.7c0.2,1.7,1.1,3.3,3.3,3.1
		c2-0.2,2.4-1.7,2.3-3.4c-0.1-1.9,0.9-2.4,2.6-2.4c2.3,0.1,4.7-0.1,5.7,2.5c1.6,4.2-0.1,6.6-4.5,6.6c-9.8,0-19.6,0-29.4,0
		c-10.2,0-20.4,0-30.7,0c-2,0-3.6,0-3.5-2.8c0.1-2.9-0.2-5.9,3.8-6.2c2-0.1,4.7-1.2,4.8,2.6c0,1.6,0.8,3,2.8,3c2,0,2.8-1.3,2.9-2.9
		C30.1,26.4,31.4,26,33.6,26.1z"/>
	<path id="XMLID_489_" class="st0" d="M57.5,65.5c-11.5,0-23,0-34.5,0c-1.8,0-3.6,0-3.7,2.4c-0.1,2.6,1.7,2.8,3.7,2.8
		c5.6,0,11.2,0,16.8,0c5.9,0,11.8,0,17.7,0c1.9,0,3.5-0.5,3.5-2.6C61,66,59.4,65.5,57.5,65.5z"/>
	<path id="XMLID_490_" class="st0" d="M22.4,55.5c7.4,0,14.8,0,22.2,0c1.7,0,3.1-0.5,3.2-2.5c0.1-2.3-1.5-2.8-3.3-2.8
		c-3.5,0-7,0-10.5,0c-3.8,0-7.5,0-11.3,0c-1.9,0-3.4,0.4-3.4,2.7C19.3,55,20.7,55.5,22.4,55.5z"/>
</g>
</svg>
