<?xml version="1.0" encoding="utf-8"?>
<!-- Generator: Adobe Illustrator 19.0.0, SVG Export Plug-In . SVG Version: 6.00 Build 0)  -->
<svg version="1.1" id="Layer_1" xmlns="http://www.w3.org/2000/svg" xmlns:xlink="http://www.w3.org/1999/xlink" x="0px" y="0px"
	 viewBox="-275 367 60 60" style="enable-background:new -275 367 60 60;" xml:space="preserve">
<style type="text/css">
	.st0{fill:#FFFFFF;}
	.st1{fill:#F30A0A;}
</style>
<rect x="-275" y="367" width="60" height="60"/>
<g>
	<path class="st0" d="M-246.6,414.4c-11.8-0.2-17.4-9.6-18.5-17.4c-1.3-8.8,4-18.6,11.9-21.6c6.7-2.6,13.4-2.2,19.7,1.5
		c6.9,4,9.3,10.3,8.8,18c-0.4,7-3.6,12.6-9.3,16.6c-2.1,1.5-4.5,2.3-7.1,2.6c-0.5-0.6-0.6-1.3-0.6-2.1c0.8,0,1.6-0.1,2.3-0.4
		c4.5-1.8,7.4-5.1,8.7-9.6c1.2-4,1.1-8,0.5-12.1c-1.3-9.3-9.2-15.3-17.8-13.8c-5,0.9-8.9,3.5-10.7,8.3c-2.5,6.6-2.2,13.3,1.1,19.6
		c2.4,4.6,6.3,7.6,11.6,8.3C-245.9,413.1-246.5,413.7-246.6,414.4z"/>
	<path class="st1" d="M-241.7,412.1c0,0.7,0.1,1.4,0.6,2.1c-0.1,1.1,0.5,2.1,0.7,3.1c0.1,0.5,0.3,0.9,0.4,1.4
		c0.4,1.6,0.4,1.6-1.3,1.5c-2,0-3.9,0-5.9,0c-0.8,0-1.1-0.1-0.6-1c0.7-1.5,1-3.1,1.3-4.7c0.1-0.7,0.7-1.4,0.6-2.2
		c0.7-2.1,1.1-4.3,2.1-6.6c0.6,2,1.2,3.7,1.7,5.5C-242.1,411.5-242.1,411.8-241.7,412.1z"/>
</g>
</svg>
