<?xml version="1.0" encoding="utf-8"?>
<!-- Generator: Adobe Illustrator 19.0.0, SVG Export Plug-In . SVG Version: 6.00 Build 0)  -->
<svg version="1.1" id="Layer_1" xmlns="http://www.w3.org/2000/svg" xmlns:xlink="http://www.w3.org/1999/xlink" x="0px" y="0px"
	 viewBox="0 0 50 73.5" style="enable-background:new 0 0 50 73.5;" xml:space="preserve">
<style type="text/css">
	.st0{fill:#FFFFFF;}
	.st1{fill:#ED1C24;}
</style>
<g>
	<g>
		<path d="M14.5,72c-1.8,1-3.8,1.5-6,1.5c-2.5,0-4.6-0.8-6.2-2.4C0.8,69.5,0,67.4,0,64.8c0-2.7,0.9-4.8,2.6-6.5
			c1.7-1.7,3.9-2.6,6.6-2.6c1.9,0,3.5,0.3,4.8,0.8v2.9c-1.3-0.9-2.9-1.3-4.7-1.3c-1.8,0-3.3,0.6-4.5,1.8C3.6,61.2,3,62.7,3,64.7
			c0,2,0.5,3.5,1.5,4.7c1,1.1,2.4,1.7,4.1,1.7c1.2,0,2.2-0.2,3.1-0.7v-4.1H8v-2.4h6.5V72z"/>
		<path d="M17.4,72.5v-2.9c0.3,0.2,0.6,0.5,0.9,0.6c0.4,0.2,0.7,0.4,1.2,0.5c0.4,0.1,0.8,0.2,1.2,0.3c0.4,0.1,0.8,0.1,1.1,0.1
			c1.2,0,2.1-0.2,2.7-0.6c0.6-0.4,0.9-1,0.9-1.7c0-0.4-0.1-0.8-0.3-1.1c-0.2-0.3-0.5-0.6-0.8-0.8c-0.4-0.2-0.8-0.5-1.2-0.7
			c-0.5-0.2-1-0.5-1.5-0.7c-0.6-0.3-1.1-0.6-1.6-0.9c-0.5-0.3-0.9-0.7-1.3-1.1c-0.4-0.4-0.7-0.8-0.9-1.3c-0.2-0.5-0.3-1.1-0.3-1.7
			c0-0.8,0.2-1.5,0.5-2.1c0.4-0.6,0.8-1.1,1.4-1.5c0.6-0.4,1.3-0.7,2-0.9c0.8-0.2,1.5-0.3,2.3-0.3c1.8,0,3.1,0.2,3.9,0.6v2.8
			c-1-0.7-2.2-1.1-3.8-1.1c-0.4,0-0.8,0-1.3,0.1c-0.4,0.1-0.8,0.2-1.1,0.4c-0.3,0.2-0.6,0.4-0.8,0.7s-0.3,0.6-0.3,1
			c0,0.4,0.1,0.7,0.2,1c0.2,0.3,0.4,0.5,0.7,0.8c0.3,0.2,0.7,0.5,1.1,0.7c0.4,0.2,1,0.5,1.5,0.7c0.6,0.3,1.2,0.6,1.7,1
			c0.5,0.3,1,0.7,1.4,1.1c0.4,0.4,0.7,0.9,1,1.4c0.2,0.5,0.4,1.1,0.4,1.7c0,0.9-0.2,1.6-0.5,2.2c-0.4,0.6-0.8,1.1-1.4,1.5
			c-0.6,0.4-1.3,0.6-2.1,0.8c-0.8,0.2-1.6,0.3-2.5,0.3c-0.3,0-0.6,0-1.1-0.1c-0.4,0-0.8-0.1-1.3-0.2c-0.4-0.1-0.9-0.2-1.2-0.3
			C18,72.8,17.7,72.6,17.4,72.5z"/>
		<path d="M50,73.2h-2.8V62.1c0-0.9,0.1-2,0.2-3.3h0c-0.2,0.8-0.3,1.3-0.5,1.6l-5.1,12.8h-2l-5.1-12.7c-0.1-0.4-0.3-0.9-0.5-1.7h0
			c0.1,0.7,0.1,1.8,0.1,3.4v11.1h-2.6V56h4l4.5,11.4c0.3,0.9,0.6,1.5,0.7,2h0.1c0.3-0.9,0.5-1.6,0.7-2L46.1,56H50V73.2z"/>
	</g>
	<g>
		<rect x="0" y="0" width="50" height="50"/>
		<g>
			<path class="st0" d="M23.7,39.5c-9.8-0.2-14.5-8-15.4-14.5c-1.1-7.3,3.3-15.5,9.9-18c5.6-2.2,11.2-1.8,16.4,1.2
				c5.8,3.3,7.7,8.6,7.3,15c-0.3,5.8-3,10.5-7.8,13.8c-1.8,1.3-3.8,1.9-5.9,2.2c-0.4-0.5-0.5-1.1-0.5-1.8c0.7,0,1.3-0.1,1.9-0.3
				c3.7-1.5,6.2-4.2,7.3-8c1-3.3,0.9-6.7,0.4-10.1c-1.1-7.7-7.7-12.7-14.8-11.5c-4.2,0.7-7.4,2.9-8.9,6.9
				c-2.1,5.5-1.8,11.1,0.9,16.3c2,3.8,5.3,6.3,9.7,6.9C24.2,38.4,23.7,38.9,23.7,39.5z"/>
			<path class="st1" d="M27.7,37.6c0,0.6,0.1,1.2,0.5,1.8c-0.1,0.9,0.4,1.7,0.6,2.6c0.1,0.4,0.2,0.8,0.3,1.2
				c0.3,1.3,0.3,1.3-1.1,1.3c-1.7,0-3.3,0-4.9,0c-0.7,0-0.9-0.1-0.5-0.8c0.6-1.3,0.8-2.6,1.1-3.9c0.1-0.6,0.6-1.2,0.5-1.8
				c0.6-1.8,0.9-3.6,1.8-5.5c0.5,1.7,1,3.1,1.4,4.6C27.4,37.1,27.4,37.3,27.7,37.6z"/>
		</g>
	</g>
</g>
</svg>
