<svg width="47" height="42" viewBox="0 0 47 42" fill="none" xmlns="http://www.w3.org/2000/svg">
<path d="M13.772 40.0114H12.6703V12.8231H1.10162V40.0114H42.9607V41.1131H0.551391C0.406158 41.1131 0.266785 41.0558 0.163545 40.9536C0.0603051 40.8515 0.00153524 40.7127 0 40.5675L0 12.5246C0.000103608 12.3104 0.0837435 12.1046 0.233146 11.9511C0.385851 11.8004 0.592156 11.7165 0.806687 11.7179H12.6703V0.96756C12.67 0.840961 12.6949 0.715562 12.7435 0.598678C12.7921 0.481793 12.8636 0.375763 12.9536 0.286773C13.0432 0.195955 13.1499 0.123838 13.2676 0.0746085C13.3852 0.0253794 13.5115 1.97727e-05 13.6391 2.4401e-06H33.2817C33.4088 -0.000283709 33.5347 0.0246003 33.6521 0.0732192C33.7696 0.121838 33.8762 0.193229 33.9659 0.283275L34.0079 0.328739C34.1656 0.504129 34.2528 0.731691 34.2527 0.96756V11.7133H46.1968C46.4102 11.7125 46.6151 11.7964 46.7668 11.9464C46.9169 12.0981 47.0007 12.3031 47 12.5165V40.5675C47 40.7137 46.9419 40.854 46.8385 40.9574C46.7351 41.0608 46.5948 41.1189 46.4486 41.1189H42.9514V40.0173H45.9065V12.8231H34.2492V40.0114H33.1476V1.10162H13.772V40.0114ZM27.418 31.0551H30.6658C30.6901 31.0554 30.7133 31.0652 30.7305 31.0824C30.7477 31.0996 30.7575 31.1229 30.7578 31.1472V34.3949C30.7575 34.4193 30.7477 34.4425 30.7305 34.4597C30.7133 34.4769 30.6901 34.4867 30.6658 34.487H27.418C27.3937 34.4867 27.3704 34.4769 27.3532 34.4597C27.336 34.4425 27.3262 34.4193 27.3259 34.3949V31.1472C27.3262 31.1229 27.336 31.0996 27.3532 31.0824C27.3704 31.0652 27.3937 31.0554 27.418 31.0551ZM21.8365 31.0551H25.0842C25.1086 31.0554 25.1318 31.0652 25.149 31.0824C25.1662 31.0996 25.176 31.1229 25.1763 31.1472V34.3949C25.176 34.4193 25.1662 34.4425 25.149 34.4597C25.1318 34.4769 25.1086 34.4867 25.0842 34.487H21.8365C21.8122 34.4867 21.7889 34.4769 21.7717 34.4597C21.7545 34.4425 21.7447 34.4193 21.7444 34.3949V31.1472C21.7447 31.1229 21.7545 31.0996 21.7717 31.0824C21.7889 31.0652 21.8122 31.0554 21.8365 31.0551ZM16.255 31.0551H19.5027C19.527 31.0554 19.5503 31.0652 19.5675 31.0824C19.5847 31.0996 19.5945 31.1229 19.5948 31.1472V34.3949C19.5945 34.4193 19.5847 34.4425 19.5675 34.4597C19.5503 34.4769 19.527 34.4867 19.5027 34.487H16.255C16.2306 34.4867 16.2074 34.4769 16.1902 34.4597C16.173 34.4425 16.1632 34.4193 16.1629 34.3949V31.1472C16.1632 31.1229 16.173 31.0996 16.1902 31.0824C16.2074 31.0652 16.2306 31.0554 16.255 31.0551ZM37.1647 27.1616H43.2487C43.2988 27.1616 43.3408 27.1919 43.3408 27.2268V29.0267C43.3408 29.0617 43.2988 29.0955 43.2487 29.0955H37.1647C37.1146 29.0955 37.0726 29.0652 37.0726 29.0267V27.2257C37.0726 27.1907 37.1146 27.1616 37.1647 27.1616ZM3.71402 27.1616H9.79215C9.84228 27.1616 9.88424 27.1919 9.88424 27.2268V29.0267C9.88424 29.0617 9.84228 29.0955 9.79215 29.0955H3.71402C3.6639 29.0955 3.62193 29.0652 3.62193 29.0267V27.2257C3.62193 27.1907 3.6639 27.1616 3.71402 27.1616ZM16.2433 3.24074H30.6809C30.7972 3.24165 30.9084 3.28825 30.9907 3.37047C31.0729 3.45269 31.1195 3.56394 31.1204 3.68022V14.9727C31.1195 15.0889 31.0729 15.2002 30.9907 15.2824C30.9084 15.3646 30.7972 15.4112 30.6809 15.4121H16.2433C16.127 15.4112 16.0158 15.3646 15.9336 15.2824C15.8513 15.2002 15.8047 15.0889 15.8038 14.9727V3.68022C15.8035 3.62242 15.8147 3.56513 15.8367 3.51167C15.8586 3.45821 15.891 3.40964 15.9319 3.36877C15.9727 3.3279 16.0213 3.29554 16.0748 3.27356C16.1282 3.25159 16.1855 3.24043 16.2433 3.24074ZM37.1647 23.233H43.2487C43.2988 23.233 43.3408 23.2634 43.3408 23.3018V25.0994C43.3408 25.1344 43.2988 25.1682 43.2487 25.1682H37.1647C37.1146 25.1682 37.0726 25.1379 37.0726 25.0994V23.3018C37.0726 23.2599 37.1146 23.233 37.1647 23.233ZM37.1647 19.2999H43.2487C43.2988 19.2999 43.3408 19.3302 43.3408 19.3686V21.1662C43.3408 21.2012 43.2988 21.235 43.2487 21.235H37.1647C37.1146 21.235 37.0726 21.2047 37.0726 21.1662V19.3686C37.0726 19.3302 37.1146 19.2999 37.1647 19.2999ZM3.71402 23.2319H9.79215C9.84228 23.2319 9.88424 23.2622 9.88424 23.3007V25.0982C9.88424 25.1332 9.84228 25.167 9.79215 25.167H3.71402C3.6639 25.167 3.62193 25.1367 3.62193 25.0982V23.3018C3.62193 23.2599 3.6639 23.2319 3.71402 23.2319ZM3.71402 19.2987H9.79215C9.84228 19.2987 9.88424 19.329 9.88424 19.3675V21.165C9.88424 21.2 9.84228 21.2338 9.79215 21.2338H3.71402C3.6639 21.2338 3.62193 21.2035 3.62193 21.165V19.3686C3.62193 19.3302 3.6639 19.2987 3.71402 19.2987ZM27.4169 25.3605H30.6646C30.6889 25.3608 30.7122 25.3706 30.7294 25.3878C30.7466 25.405 30.7564 25.4283 30.7567 25.4526V28.7003C30.7564 28.7247 30.7466 28.7479 30.7294 28.7651C30.7122 28.7823 30.6889 28.7921 30.6646 28.7924H27.418C27.3937 28.7921 27.3704 28.7823 27.3532 28.7651C27.336 28.7479 27.3262 28.7247 27.3259 28.7003V25.4514C27.3262 25.4271 27.336 25.4039 27.3532 25.3867C27.3704 25.3694 27.3937 25.3596 27.418 25.3593L27.4169 25.3605ZM21.8353 25.3605H25.0831C25.1074 25.3608 25.1306 25.3706 25.1478 25.3878C25.1651 25.405 25.1749 25.4283 25.1752 25.4526V28.7003C25.1749 28.7247 25.1651 28.7479 25.1478 28.7651C25.1306 28.7823 25.1074 28.7921 25.0831 28.7924H21.8365C21.8122 28.7921 21.7889 28.7823 21.7717 28.7651C21.7545 28.7479 21.7447 28.7247 21.7444 28.7003V25.4514C21.7447 25.4271 21.7545 25.4039 21.7717 25.3867C21.7889 25.3694 21.8122 25.3596 21.8365 25.3593L21.8353 25.3605ZM16.2538 25.3605H19.5027C19.527 25.3608 19.5503 25.3706 19.5675 25.3878C19.5847 25.405 19.5945 25.4283 19.5948 25.4526V28.7003C19.5945 28.7247 19.5847 28.7479 19.5675 28.7651C19.5503 28.7823 19.527 28.7921 19.5027 28.7924H16.255C16.2306 28.7921 16.2074 28.7823 16.1902 28.7651C16.173 28.7479 16.1632 28.7247 16.1629 28.7003V25.4514C16.1632 25.4271 16.173 25.4039 16.1902 25.3867C16.2074 25.3694 16.2306 25.3596 16.255 25.3593L16.2538 25.3605ZM27.4169 19.0562H30.6646C30.6889 19.0565 30.7122 19.0663 30.7294 19.0835C30.7466 19.1007 30.7564 19.124 30.7567 19.1483V22.3961C30.7564 22.4204 30.7466 22.4436 30.7294 22.4608C30.7122 22.478 30.6889 22.4878 30.6646 22.4881H27.418C27.3937 22.4878 27.3704 22.478 27.3532 22.4608C27.336 22.4436 27.3262 22.4204 27.3259 22.3961V19.1472C27.3262 19.1228 27.336 19.0996 27.3532 19.0824C27.3704 19.0652 27.3937 19.0554 27.418 19.0551L27.4169 19.0562ZM21.8353 19.0562H25.0831C25.1074 19.0565 25.1306 19.0663 25.1478 19.0835C25.1651 19.1007 25.1749 19.124 25.1752 19.1483V22.3961C25.1749 22.4204 25.1651 22.4436 25.1478 22.4608C25.1306 22.478 25.1074 22.4878 25.0831 22.4881H21.8365C21.8122 22.4878 21.7889 22.478 21.7717 22.4608C21.7545 22.4436 21.7447 22.4204 21.7444 22.3961V19.1472C21.7447 19.1228 21.7545 19.0996 21.7717 19.0824C21.7889 19.0652 21.8122 19.0554 21.8365 19.0551L21.8353 19.0562ZM16.2538 19.0562H19.5027C19.527 19.0565 19.5503 19.0663 19.5675 19.0835C19.5847 19.1007 19.5945 19.124 19.5948 19.1483V22.3961C19.5945 22.4204 19.5847 22.4436 19.5675 22.4608C19.5503 22.478 19.527 22.4878 19.5027 22.4881H16.255C16.2306 22.4878 16.2074 22.478 16.1902 22.4608C16.173 22.4436 16.1632 22.4204 16.1629 22.3961V19.1472C16.1632 19.1228 16.173 19.0996 16.1902 19.0824C16.2074 19.0652 16.2306 19.0554 16.255 19.0551L16.2538 19.0562Z" fill="white"/>
</svg>
