<svg width="39" height="38" viewBox="0 0 39 38" fill="none" xmlns="http://www.w3.org/2000/svg">
<path fill-rule="evenodd" clip-rule="evenodd" d="M29.462 8.167e-06C31.6002 -2.92247e-05 33.6724 0.741365 35.3252 2.09786C36.9781 3.45435 38.1095 5.34201 38.5266 7.43918C38.9437 9.53635 38.6207 11.7133 37.6127 13.599C36.6047 15.4847 34.9739 16.9626 32.9984 17.7807C31.0229 18.5989 28.8248 18.7067 26.7786 18.0858C24.7325 17.465 22.965 16.1538 21.7772 14.3758C20.5894 12.5978 20.0549 10.4629 20.2648 8.33502C20.4746 6.2071 21.4158 4.21777 22.928 2.70601C23.7852 1.84677 24.8037 1.16539 25.925 0.701005C27.0463 0.236621 28.2483 -0.00160787 29.462 8.167e-06ZM9.61 7.03501L3.432 13.564H9.61V7.03501ZM0 14.8C0.000310411 14.7147 0.0107162 14.6298 0.031 14.547C0.0411219 14.3005 0.140243 14.066 0.31 13.887L9.71 3.95301C9.7989 3.79225 9.9293 3.65827 10.0876 3.56505C10.2459 3.47183 10.4263 3.42278 10.61 3.42301H19.183C18.8118 4.07746 18.504 4.76593 18.264 5.47901H11.664V14.589C11.6637 14.8613 11.5554 15.1224 11.3629 15.3149C11.1704 15.5075 10.9093 15.6157 10.637 15.616H2.056V35.656H31.689V20.839C32.3912 20.7044 33.0797 20.5063 33.746 20.247V35.671C33.7434 36.2126 33.5269 36.7311 33.1437 37.1138C32.7604 37.4964 32.2415 37.7122 31.7 37.714H2.044C1.50256 37.7124 0.983727 37.4967 0.600774 37.1139C0.217821 36.7312 0.00184653 36.2125 0 35.671L0 14.8ZM24.558 20.8C24.8291 20.8 25.089 20.9077 25.2807 21.0993C25.4723 21.291 25.58 21.551 25.58 21.822C25.58 22.0931 25.4723 22.353 25.2807 22.5447C25.089 22.7363 24.8291 22.844 24.558 22.844H9.187C8.91595 22.844 8.656 22.7363 8.46434 22.5447C8.27267 22.353 8.165 22.0931 8.165 21.822C8.165 21.551 8.27267 21.291 8.46434 21.0993C8.656 20.9077 8.91595 20.8 9.187 20.8H24.558ZM24.558 27.7C24.8291 27.7 25.089 27.8077 25.2807 27.9993C25.4723 28.191 25.58 28.451 25.58 28.722C25.58 28.9931 25.4723 29.253 25.2807 29.4447C25.089 29.6363 24.8291 29.744 24.558 29.744H9.187C8.91595 29.744 8.656 29.6363 8.46434 29.4447C8.27267 29.253 8.165 28.9931 8.165 28.722C8.165 28.451 8.27267 28.191 8.46434 27.9993C8.656 27.8077 8.91595 27.7 9.187 27.7H24.558ZM28.584 4.84401H30.341C30.5037 4.84557 30.6593 4.91083 30.7745 5.0258C30.8897 5.14077 30.9552 5.29629 30.957 5.45901V7.74701H33.243C33.4056 7.74882 33.5611 7.81417 33.6762 7.92908C33.7913 8.044 33.8569 8.19937 33.859 8.36201V10.119C33.8564 10.2816 33.7907 10.4368 33.6757 10.5517C33.5608 10.6667 33.4056 10.7324 33.243 10.735H30.958V13.023C30.9552 13.1854 30.8893 13.3403 30.7744 13.4551C30.6594 13.5699 30.5044 13.6354 30.342 13.638H28.584C28.4213 13.6367 28.2656 13.5715 28.1506 13.4564C28.0355 13.3414 27.9703 13.1857 27.969 13.023V10.735H25.679C25.5161 10.7334 25.3603 10.668 25.2452 10.5529C25.13 10.4377 25.0646 10.2819 25.063 10.119V8.36301C25.0633 8.19981 25.1283 8.04338 25.2438 7.92808C25.3593 7.81277 25.5158 7.74801 25.679 7.74801H27.969V5.45901C27.9693 5.29598 28.0341 5.13971 28.1494 5.02443C28.2647 4.90915 28.421 4.84427 28.584 4.84401Z" fill="white"/>
</svg>
