<svg width="35" height="47" viewBox="0 0 35 47" fill="none" xmlns="http://www.w3.org/2000/svg">
<path fill-rule="evenodd" clip-rule="evenodd" d="M8.26726 12.7662H26.7672C26.8114 12.7667 26.8536 12.7845 26.8848 12.8157C26.916 12.8469 26.9338 12.8891 26.9344 12.9333V14.5268C26.9338 14.5709 26.916 14.6131 26.8848 14.6443C26.8536 14.6755 26.8114 14.6933 26.7672 14.6939H8.26726C8.21387 14.6936 8.16276 14.6723 8.12501 14.6345C8.08726 14.5968 8.06593 14.5457 8.06564 14.4923V12.9635C8.06677 12.9107 8.08851 12.8606 8.1262 12.8237C8.16389 12.7868 8.21453 12.7661 8.26726 12.7662ZM3.51801 2.75337H6.48723V0.890327C6.51661 0.630277 6.64649 0.392018 6.84914 0.22643C7.0518 0.0608409 7.31116 -0.0189533 7.57185 0.00408705C7.83236 -0.0186571 8.09145 0.0612729 8.29387 0.226833C8.49629 0.392392 8.62602 0.630481 8.65539 0.890327V2.75014H13.3691V0.890327C13.3982 0.631382 13.5271 0.393979 13.7284 0.228512C13.9297 0.0630442 14.1875 -0.0174601 14.4472 0.00408705C14.7077 -0.0186571 14.9668 0.0612729 15.1692 0.226833C15.3717 0.392392 15.5014 0.630481 15.5308 0.890327V2.75014H20.2466V0.890327C20.276 0.62987 20.4061 0.391269 20.6093 0.225622C20.8124 0.0599748 21.0723 -0.0195469 21.3334 0.00408705C21.5939 -0.0186571 21.853 0.0612729 22.0554 0.226833C22.2578 0.392392 22.3875 0.630481 22.4169 0.890327V2.75014H27.1327V0.890327C27.1621 0.630481 27.2918 0.392392 27.4943 0.226833C27.6967 0.0612729 27.9558 -0.0186571 28.2163 0.00408705C28.4768 -0.0186571 28.7359 0.0612729 28.9383 0.226833C29.1407 0.392392 29.2704 0.630481 29.2998 0.890327V2.75014H31.482C32.4143 2.75241 33.3078 3.12379 33.9671 3.78305C34.6263 4.44231 34.9977 5.33581 35 6.26814V43.211C34.9977 44.1433 34.6263 45.0368 33.9671 45.6961C33.3078 46.3553 32.4143 46.7267 31.482 46.729H3.51801C2.58567 46.7267 1.69218 46.3553 1.03292 45.6961C0.373655 45.0368 0.00227746 44.1433 0 43.211L0 6.27138C0.00227746 5.33904 0.373655 4.44555 1.03292 3.78629C1.69218 3.12703 2.58567 2.75565 3.51801 2.75337ZM3.7994 5.74632H6.48723V7.06597C6.51661 7.32582 6.64634 7.56391 6.84876 7.72947C7.05117 7.89503 7.31026 7.97496 7.57077 7.95221C7.83146 7.97525 8.09082 7.89546 8.29348 7.72987C8.49613 7.56428 8.62602 7.32602 8.65539 7.06597V5.74632H13.3691V7.06597C13.3984 7.32582 13.5282 7.56391 13.7306 7.72947C13.933 7.89503 14.1921 7.97496 14.4526 7.95221C14.7131 7.97496 14.9722 7.89503 15.1746 7.72947C15.377 7.56391 15.5068 7.32582 15.5361 7.06597V5.74632H20.252V7.06597C20.2814 7.32582 20.4111 7.56391 20.6135 7.72947C20.8159 7.89503 21.075 7.97496 21.3355 7.95221C21.5971 7.97674 21.8578 7.89763 22.0617 7.73189C22.2655 7.56616 22.3962 7.32704 22.4255 7.06597V5.74632H27.137V7.06597C27.1664 7.32582 27.2962 7.56391 27.4986 7.72947C27.701 7.89503 27.9601 7.97496 28.2206 7.95221C28.4811 7.97496 28.7402 7.89503 28.9426 7.72947C29.145 7.56391 29.2748 7.32582 29.3041 7.06597V5.74632H31.206C31.4689 5.74773 31.7207 5.8528 31.9066 6.03872C32.0925 6.22463 32.1975 6.47638 32.199 6.73929V42.743C32.197 43.0058 32.0917 43.2572 31.9059 43.443C31.7202 43.6288 31.4687 43.7341 31.206 43.736H3.7994C3.53649 43.7346 3.28474 43.6295 3.09883 43.4436C2.91291 43.2577 2.80784 43.006 2.80643 42.743V6.73929C2.80784 6.47638 2.91291 6.22463 3.09883 6.03872C3.28474 5.8528 3.53649 5.74773 3.7994 5.74632ZM8.26726 39.8957H26.7672C26.8114 39.8951 26.8536 39.8773 26.8848 39.8461C26.916 39.8149 26.9338 39.7727 26.9344 39.7285V38.1307C26.9338 38.0866 26.916 38.0444 26.8848 38.0132C26.8536 37.982 26.8114 37.9642 26.7672 37.9636H8.26726C8.21387 37.9639 8.16276 37.9852 8.12501 38.023C8.08726 38.0607 8.06593 38.1118 8.06564 38.1652V39.694C8.06564 39.7205 8.07086 39.7467 8.08099 39.7712C8.09112 39.7957 8.10597 39.8179 8.1247 39.8366C8.14342 39.8553 8.16564 39.8702 8.1901 39.8803C8.21456 39.8904 8.24078 39.8957 8.26726 39.8957ZM8.26726 33.5982H26.7672C26.7896 33.598 26.8116 33.5935 26.8322 33.5848C26.8527 33.5761 26.8714 33.5634 26.887 33.5475C26.9026 33.5315 26.915 33.5127 26.9233 33.4919C26.9316 33.4712 26.9357 33.4491 26.9354 33.4267V32.0154C26.9349 31.9713 26.9171 31.9291 26.8859 31.8979C26.8547 31.8667 26.8125 31.8489 26.7683 31.8483H8.26726C8.21387 31.8486 8.16276 31.87 8.12501 31.9077C8.08726 31.9454 8.06593 31.9966 8.06564 32.0499V33.3966C8.06677 33.4493 8.08851 33.4995 8.1262 33.5363C8.16389 33.5732 8.21453 33.5939 8.26726 33.5939V33.5982ZM8.26726 27.2975H26.7672C26.8114 27.2969 26.8536 27.2791 26.8848 27.2479C26.916 27.2167 26.9338 27.1745 26.9344 27.1303V25.3492C26.9338 25.3051 26.916 25.2629 26.8848 25.2317C26.8536 25.2005 26.8114 25.1827 26.7672 25.1821H8.26726C8.21387 25.1824 8.16276 25.2037 8.12501 25.2415C8.08726 25.2792 8.06593 25.3304 8.06564 25.3837V27.0948C8.06677 27.1475 8.08851 27.1977 8.1262 27.2346C8.16389 27.2714 8.21453 27.2921 8.26726 27.2921V27.2975ZM8.26726 21H26.7672C26.8114 20.9994 26.8536 20.9816 26.8848 20.9504C26.916 20.9192 26.9338 20.877 26.9344 20.8329V19.2351C26.9338 19.1909 26.916 19.1487 26.8848 19.1175C26.8536 19.0863 26.8114 19.0685 26.7672 19.0679H8.26726C8.21387 19.0682 8.16276 19.0896 8.12501 19.1273C8.08726 19.1651 8.06593 19.2162 8.06564 19.2696V20.7984C8.06677 20.8511 8.08851 20.9013 8.1262 20.9382C8.16389 20.975 8.21453 20.9957 8.26726 20.9957V21Z" fill="white"/>
</svg>
