<svg width="39" height="42" viewBox="0 0 39 42" fill="none" xmlns="http://www.w3.org/2000/svg">
<path fill-rule="evenodd" clip-rule="evenodd" d="M3.69 33.8367C4.41981 33.8367 5.13324 34.0531 5.74005 34.4585C6.34687 34.864 6.81983 35.4403 7.09912 36.1146C7.3784 36.7888 7.45148 37.5308 7.3091 38.2465C7.16672 38.9623 6.81528 39.6198 6.29922 40.1359C5.78317 40.6519 5.12567 41.0034 4.40988 41.1458C3.69409 41.2881 2.95216 41.2151 2.2779 40.9358C1.60364 40.6565 1.02734 40.1835 0.621877 39.5767C0.216415 38.9699 0 38.2565 0 37.5267C0 36.548 0.388767 35.6094 1.08078 34.9174C1.77279 34.2254 2.71135 33.8367 3.69 33.8367ZM17.39 25.5367H5.337V30.8097C5.337 31.0259 5.2944 31.2401 5.21163 31.4399C5.12886 31.6398 5.00754 31.8213 4.8546 31.9743C4.70167 32.1272 4.5201 32.2485 4.32028 32.3313C4.12046 32.4141 3.90629 32.4567 3.69 32.4567C3.47371 32.4567 3.25954 32.4141 3.05972 32.3313C2.8599 32.2485 2.67833 32.1272 2.5254 31.9743C2.37246 31.8213 2.25114 31.6398 2.16837 31.4399C2.0856 31.2401 2.043 31.0259 2.043 30.8097V24.3807C2.04353 24.2987 2.04921 24.2169 2.06 24.1357C2.04754 24.0546 2.04186 23.9727 2.043 23.8907C2.04326 23.4539 2.21687 23.0352 2.52569 22.7263C2.8345 22.4175 3.25327 22.2439 3.69 22.2437H17.3L17.246 17.8157C16.913 17.7208 16.5858 17.6066 16.266 17.4737C15.9468 17.342 15.6364 17.1897 15.337 17.0177L14.314 18.1447C14.1299 18.3309 13.8819 18.4401 13.6202 18.4502C13.3585 18.4602 13.1028 18.3703 12.905 18.1987L11.405 16.7897C11.3079 16.701 11.2292 16.5941 11.1734 16.475C11.1176 16.3559 11.0859 16.227 11.08 16.0957C11.0717 15.9666 11.0914 15.8372 11.1377 15.7164C11.1839 15.5956 11.2557 15.4862 11.348 15.3957L12.472 14.1817C12.2977 13.8823 12.143 13.572 12.009 13.2527C11.8742 12.9298 11.7586 12.5992 11.663 12.2627L10.163 12.3227C10.0314 12.3293 9.89976 12.309 9.77629 12.2629C9.65281 12.2168 9.54007 12.1459 9.445 12.0547C9.25382 11.8772 9.14059 11.6313 9.13 11.3707L9.049 9.31065C9.04135 9.17976 9.06027 9.04867 9.10461 8.92528C9.14895 8.80189 9.21779 8.68874 9.307 8.59265C9.39487 8.49567 9.50171 8.41776 9.62092 8.36375C9.74012 8.30973 9.86915 8.28077 10 8.27865L11.64 8.21465C11.7333 7.87786 11.8475 7.54722 11.982 7.22465C12.1137 6.90542 12.266 6.59509 12.438 6.29565L11.328 5.27265C11.2303 5.18443 11.1513 5.07761 11.0954 4.95843C11.0396 4.83926 11.0081 4.71014 11.0027 4.57863C10.9974 4.44713 11.0184 4.31589 11.0645 4.1926C11.1106 4.06931 11.1808 3.95646 11.271 3.86065L12.653 2.36065C12.7416 2.26351 12.8485 2.18481 12.9676 2.12904C13.0867 2.07327 13.2156 2.04154 13.347 2.03565C13.476 2.02838 13.6051 2.0485 13.7257 2.09469C13.8464 2.14088 13.9559 2.2121 14.047 2.30365L15.28 3.42165C15.5686 3.24616 15.8694 3.09144 16.18 2.95865C16.5029 2.82383 16.8334 2.70829 17.17 2.61265L17.11 1.11265C17.1033 0.98055 17.1238 0.848481 17.1703 0.72463C17.2167 0.60078 17.2881 0.487787 17.38 0.392654C17.5575 0.201474 17.8034 0.0882394 18.064 0.0776539L20.124 0.00165393C20.2549 -0.00599153 20.386 0.0129242 20.5094 0.0572628C20.6328 0.101601 20.7459 0.170446 20.842 0.259654C20.9393 0.347549 21.0175 0.454516 21.0716 0.573906C21.1258 0.693297 21.1549 0.822558 21.157 0.953654L21.221 2.59365C21.554 2.68856 21.8812 2.80275 22.201 2.93565C22.5221 3.06321 22.8327 3.21567 23.13 3.39165L24.153 2.28465C24.2412 2.18699 24.348 2.10791 24.4672 2.05206C24.5864 1.99621 24.7155 1.96471 24.847 1.9594C24.9785 1.95409 25.1098 1.97509 25.2331 2.02115C25.3563 2.06721 25.4692 2.13742 25.565 2.22765L25.585 2.24465L27.085 3.62665C27.1821 3.71528 27.2608 3.8222 27.3166 3.94129C27.3724 4.06037 27.4041 4.18929 27.41 4.32065C27.4173 4.44964 27.3972 4.5787 27.351 4.69936C27.3048 4.82001 27.2336 4.92951 27.142 5.02065L26.022 6.25465C26.1969 6.55016 26.3516 6.8572 26.485 7.17365C26.6167 7.49431 26.7322 7.82139 26.831 8.15365L28.331 8.09365C28.4626 8.08698 28.5942 8.10731 28.7177 8.1534C28.8412 8.19949 28.9539 8.27036 29.049 8.36165C29.2402 8.53913 29.3534 8.78501 29.364 9.04565L29.445 11.1057C29.4526 11.2365 29.4337 11.3676 29.3894 11.491C29.3451 11.6144 29.2762 11.7276 29.187 11.8237C29.0991 11.9209 28.9921 11.9991 28.8727 12.0533C28.7534 12.1075 28.6241 12.1365 28.493 12.1387L26.853 12.2027C26.7581 12.5357 26.6439 12.8629 26.511 13.1827C26.3793 13.5019 26.227 13.8122 26.055 14.1117L27.182 15.1347C27.2759 15.2246 27.3512 15.3322 27.4036 15.4513C27.4559 15.5704 27.4842 15.6986 27.487 15.8287C27.4988 16.0906 27.4085 16.347 27.235 16.5437L25.83 18.0477C25.7448 18.1463 25.64 18.2262 25.5222 18.2822C25.4045 18.3381 25.2763 18.3689 25.146 18.3727C25.0158 18.3802 24.8854 18.3602 24.7635 18.314C24.6415 18.2679 24.5306 18.1965 24.438 18.1047L23.224 16.9807C22.9247 17.155 22.6144 17.3096 22.295 17.4437C21.9721 17.5785 21.6416 17.694 21.305 17.7897L21.355 22.2377H34.934C35.3707 22.2379 35.7895 22.4115 36.0983 22.7203C36.4071 23.0292 36.5807 23.4479 36.581 23.8847C36.5805 23.9666 36.5748 24.0484 36.564 24.1297C36.5765 24.2107 36.5821 24.2927 36.581 24.3747V30.8017C36.581 31.2385 36.4075 31.6574 36.0986 31.9663C35.7897 32.2751 35.3708 32.4487 34.934 32.4487C34.4972 32.4487 34.0783 32.2751 33.7694 31.9663C33.4605 31.6574 33.287 31.2385 33.287 30.8017V25.5347H21.345V30.2817C21.345 30.8057 21.1368 31.3083 20.7662 31.6789C20.3957 32.0495 19.8931 32.2577 19.369 32.2577C18.8449 32.2577 18.3423 32.0495 17.9718 31.6789C17.6012 31.3083 17.393 30.8057 17.393 30.2817V25.5347L17.39 25.5367ZM19.077 6.15565C19.6186 6.13041 20.1597 6.21617 20.667 6.40765C21.1549 6.5945 21.604 6.86978 21.992 7.21965C22.3709 7.57681 22.6789 8.00225 22.9 8.47365C23.1284 8.96477 23.2572 9.49627 23.279 10.0374C23.3008 10.5786 23.2151 11.1188 23.027 11.6267C22.8389 12.1139 22.5637 12.5628 22.215 12.9517C21.8579 13.3321 21.4321 13.6415 20.96 13.8637C20.4689 14.092 19.9374 14.2208 19.3962 14.2426C18.855 14.2644 18.3149 14.1788 17.807 13.9907C17.3191 13.8038 16.87 13.5285 16.482 13.1787C16.1016 12.8216 15.7922 12.3957 15.57 11.9237C15.3416 11.4325 15.2128 10.901 15.191 10.3599C15.1692 9.81868 15.2549 9.27855 15.443 8.77065C15.6311 8.28344 15.9063 7.83447 16.255 7.44565C16.6121 7.06525 17.0379 6.75582 17.51 6.53365C17.9994 6.3012 18.5315 6.17218 19.073 6.15465L19.077 6.15565ZM34.931 33.8367C35.6608 33.8367 36.3742 34.0531 36.9811 34.4585C37.5879 34.864 38.0608 35.4403 38.3401 36.1146C38.6194 36.7888 38.6925 37.5308 38.5501 38.2465C38.4077 38.9623 38.0563 39.6198 37.5402 40.1359C37.0242 40.6519 36.3667 41.0034 35.6509 41.1458C34.9351 41.2881 34.1932 41.2151 33.5189 40.9358C32.8446 40.6565 32.2683 40.1835 31.8629 39.5767C31.4574 38.9699 31.241 38.2565 31.241 37.5267C31.241 36.548 31.6298 35.6094 32.3218 34.9174C33.0138 34.2254 33.9524 33.8367 34.931 33.8367ZM19.245 33.8367C19.9748 33.8367 20.6882 34.0531 21.2951 34.4585C21.9019 34.864 22.3748 35.4403 22.6541 36.1146C22.9334 36.7888 23.0065 37.5308 22.8641 38.2465C22.7217 38.9623 22.3703 39.6198 21.8542 40.1359C21.3382 40.6519 20.6807 41.0034 19.9649 41.1458C19.2491 41.2881 18.5072 41.2151 17.8329 40.9358C17.1586 40.6565 16.5823 40.1835 16.1769 39.5767C15.7714 38.9699 15.555 38.2565 15.555 37.5267C15.555 36.548 15.9438 35.6094 16.6358 34.9174C17.3278 34.2254 18.2664 33.8367 19.245 33.8367Z" fill="white"/>
</svg>
