<?xml version="1.0" encoding="utf-8"?>
<!-- Generator: Adobe Illustrator 19.0.0, SVG Export Plug-In . SVG Version: 6.00 Build 0)  -->
<svg version="1.1" id="Layer_1" xmlns="http://www.w3.org/2000/svg" xmlns:xlink="http://www.w3.org/1999/xlink" x="0px" y="0px"
	 viewBox="-257 358 95.8 77" style="enable-background:new -257 358 95.8 77;" xml:space="preserve">
<style type="text/css">
	.st0{fill:#009FE3;}
	.st1{fill:#231F20;}
	.st2{fill:#FFFFFF;}
	.st3{fill:#F30A0A;}
</style>
<g>
	<circle class="st0" cx="-207.7" cy="386.9" r="27.3"/>
	<circle class="st1" cx="-207.7" cy="386.9" r="21.7"/>
	<g>
		<path class="st2" d="M-208.8,398.3c-7.7-0.1-11.3-6.3-12.1-11.3c-0.8-5.7,2.6-12.1,7.8-14.1c4.4-1.7,8.7-1.4,12.8,1
			c4.5,2.6,6.1,6.7,5.7,11.7c-0.3,4.6-2.3,8.2-6.1,10.8c-1.4,1-2.9,1.5-4.6,1.7c-0.3-0.4-0.4-0.8-0.4-1.4c0.5,0,1-0.1,1.5-0.3
			c2.9-1.2,4.8-3.3,5.7-6.3c0.8-2.6,0.7-5.2,0.3-7.9c-0.8-6.1-6-10-11.6-9c-3.3,0.6-5.8,2.3-7,5.4c-1.6,4.3-1.4,8.7,0.7,12.8
			c1.6,3,4.1,5,7.6,5.4C-208.3,397.4-208.7,397.8-208.8,398.3z"/>
		<path class="st3" d="M-205.6,396.8c0,0.5,0.1,0.9,0.4,1.4c-0.1,0.7,0.3,1.4,0.5,2c0.1,0.3,0.2,0.6,0.3,0.9c0.3,1,0.3,1-0.8,1
			c-1.3,0-2.5,0-3.8,0c-0.5,0-0.7-0.1-0.4-0.7c0.5-1,0.7-2,0.8-3.1c0.1-0.5,0.5-0.9,0.4-1.4c0.5-1.4,0.7-2.8,1.4-4.3
			c0.4,1.3,0.8,2.4,1.1,3.6C-205.8,396.4-205.8,396.6-205.6,396.8z"/>
	</g>
</g>
<g>
	<path class="st2" d="M-231.8,434.8h-8v-14.3h7.7v2h-5.3v4h4.9v2h-4.9v4.2h5.6V434.8z"/>
	<path class="st2" d="M-224.1,430h-5.4v-1.7h5.4V430z"/>
	<path class="st2" d="M-209.9,433.8c-1.5,0.8-3.1,1.2-5,1.2c-2.1,0-3.8-0.7-5.1-2s-2-3.1-2-5.2c0-2.2,0.7-4,2.1-5.4
		c1.4-1.4,3.2-2.1,5.5-2.1c1.6,0,2.9,0.2,4,0.7v2.4c-1.1-0.7-2.4-1.1-3.9-1.1c-1.5,0-2.8,0.5-3.7,1.5c-1,1-1.5,2.3-1.5,3.9
		c0,1.6,0.4,2.9,1.3,3.9s2,1.4,3.4,1.4c1,0,1.8-0.2,2.5-0.6V429h-3v-2h5.4V433.8z"/>
	<path class="st2" d="M-206.5,434.2v-2.4c0.2,0.2,0.5,0.4,0.8,0.5s0.6,0.3,1,0.4c0.3,0.1,0.7,0.2,1,0.3c0.3,0.1,0.7,0.1,0.9,0.1
		c1,0,1.7-0.2,2.2-0.5c0.5-0.3,0.7-0.8,0.7-1.4c0-0.3-0.1-0.6-0.2-0.9s-0.4-0.5-0.7-0.7c-0.3-0.2-0.6-0.4-1-0.6
		c-0.4-0.2-0.8-0.4-1.3-0.6c-0.5-0.3-0.9-0.5-1.4-0.8s-0.8-0.6-1.1-0.9s-0.6-0.7-0.7-1.1c-0.2-0.4-0.3-0.9-0.3-1.4
		c0-0.7,0.2-1.3,0.5-1.7c0.3-0.5,0.7-0.9,1.2-1.2c0.5-0.3,1.1-0.6,1.7-0.7c0.6-0.2,1.3-0.2,1.9-0.2c1.5,0,2.6,0.2,3.3,0.5v2.3
		c-0.8-0.6-1.9-0.9-3.1-0.9c-0.4,0-0.7,0-1,0.1s-0.7,0.2-0.9,0.3c-0.3,0.2-0.5,0.3-0.7,0.6c-0.2,0.2-0.3,0.5-0.3,0.9
		c0,0.3,0.1,0.6,0.2,0.8c0.1,0.2,0.3,0.4,0.6,0.6c0.3,0.2,0.6,0.4,0.9,0.6s0.8,0.4,1.3,0.6c0.5,0.3,1,0.5,1.4,0.8
		c0.4,0.3,0.8,0.6,1.2,0.9s0.6,0.7,0.8,1.1c0.2,0.4,0.3,0.9,0.3,1.4c0,0.7-0.1,1.3-0.4,1.8c-0.3,0.5-0.7,0.9-1.2,1.2
		c-0.5,0.3-1.1,0.5-1.7,0.7c-0.6,0.1-1.3,0.2-2,0.2c-0.2,0-0.5,0-0.9-0.1c-0.3,0-0.7-0.1-1.1-0.2c-0.4-0.1-0.7-0.2-1-0.3
		C-206,434.4-206.3,434.3-206.5,434.2z"/>
	<path class="st2" d="M-178.4,434.8h-2.3v-9.2c0-0.8,0-1.7,0.1-2.8h0c-0.1,0.6-0.3,1.1-0.4,1.3l-4.3,10.7h-1.6l-4.3-10.6
		c-0.1-0.3-0.2-0.8-0.4-1.4h0c0.1,0.6,0.1,1.5,0.1,2.8v9.2h-2.2v-14.3h3.3l3.8,9.5c0.3,0.7,0.5,1.3,0.6,1.6h0
		c0.2-0.8,0.4-1.3,0.6-1.7l3.8-9.5h3.2V434.8z"/>
</g>
</svg>
