<?xml version="1.0" encoding="utf-8"?>
<!-- Generator: Adobe Illustrator 19.0.0, SVG Export Plug-In . SVG Version: 6.00 Build 0)  -->
<svg version="1.1" id="search" xmlns="http://www.w3.org/2000/svg" xmlns:xlink="http://www.w3.org/1999/xlink" x="0px" y="0px"
	 viewBox="-268 359.1 74.9 74.9" style="enable-background:new -268 359.1 74.9 74.9;" xml:space="preserve">
<style type="text/css">
	.st0{fill:#A6B8BD;fill-opacity:0;}
	.st1{fill:#91A1A6;}
</style>
<rect id="Rectangle_314" x="-829" y="1103.2" class="st0" width="24" height="24"/>
<path id="Vector" class="st1" d="M-200.7,422.4l-19.5-19.5c7.6-9.9,5.7-24-4.2-31.6c-3.9-3-8.7-4.6-13.7-4.7
	c-12.4,0-22.5,10.1-22.5,22.5c0,6,2.4,11.7,6.6,15.9c8,8,20.7,8.8,29.6,1.9l19.5,19.5c0.1,0.1,0.3,0.2,0.4,0.2
	c0.2,0,0.3-0.1,0.4-0.2l3.3-3.3c0.1-0.1,0.1-0.1,0.1-0.2C-200.5,422.8-200.5,422.6-200.7,422.4L-200.7,422.4z M-226.1,401.1
	c-6.6,6.6-17.2,6.6-23.8,0c-6.6-6.6-6.6-17.2,0-23.8c6.6-6.6,17.2-6.6,23.8,0c3.2,3.2,4.9,7.4,4.9,11.9S-223,397.9-226.1,401.1z"/>
</svg>
