<?xml version="1.0" standalone="no"?>
<!DOCTYPE svg PUBLIC "-//W3C//DTD SVG 1.1//EN" "http://www.w3.org/Graphics/SVG/1.1/DTD/svg11.dtd" >
<svg xmlns="http://www.w3.org/2000/svg">
<metadata>Generated by IcoMoon</metadata>
<defs>
<font id="quantumbso" horiz-adv-x="1024">
<font-face units-per-em="1024" ascent="960" descent="-64" />
<missing-glyph horiz-adv-x="1024" />
<glyph unicode="&#x20;" horiz-adv-x="512" d="" />
<glyph unicode="&#xe900;" glyph-name="file" d="M248.832 805.376c7.168-45.056-7.168-63.488-57.344-60.416-54.272 3.072-89.088-35.84-89.088-94.208-1.024-169.984-1.024-338.944 0-508.928 0-56.32 35.84-93.184 91.136-94.208 214.016-1.024 428.032-1.024 642.048 0 45.056 0 82.944 38.912 83.968 82.944 1.024 177.152 1.024 353.28 0 530.432 0 45.056-32.768 77.824-76.8 84.992-22.528 3.072-52.224-11.264-64.512 9.216-10.24 17.408-4.096 45.056-5.12 67.584 0 8.192-1.024 17.408-1.024 25.6 0 0 0 0 0 0-16.384 0-33.792 0-50.176 1.024-12.288-22.528-8.192-48.128-7.168-71.68 1.024-24.576-9.216-31.744-32.768-31.744-112.64 1.024-226.304 1.024-338.944 0-25.6 0-36.864 7.168-34.816 33.792 1.024 22.528-1.024 46.080-1.024 68.608 0 0 0 0 0 0-18.432 0-37.888 0-56.32 0 0 0 0 0 0 0-1.024-14.336-4.096-29.696-2.048-43.008zM862.208 155.136c0-34.816-10.24-49.152-47.104-49.152-202.752 1.024-404.48 1.024-607.232 0-32.768 0-46.080 10.24-46.080 45.056 1.024 118.784 1.024 238.592 0 357.376 0 31.744 11.264 37.888 39.936 37.888 103.424-1.024 206.848-1.024 310.272-1.024s206.848-1.024 310.272 1.024c29.696 0 39.936-7.168 39.936-38.912-2.048-116.736-1.024-234.496 0-352.256zM344.064 692.736c111.616-1.024 223.232-1.024 335.872 0 20.48 0 35.84-2.048 37.888-27.648 2.048-17.408 11.264-33.792 33.792-31.744 20.48 2.048 24.576 17.408 23.552 34.816-1.024 19.456 9.216 24.576 26.624 24.576 23.552-1.024 48.128 1.024 58.368-25.6 16.384-43.008-1.024-67.584-46.080-67.584-100.352 0-200.704 0-301.056 0-104.448 0-208.896 0-314.368 0-20.48 0-36.864 0-35.84 28.672 1.024 29.696-2.048 60.416 38.912 63.488 20.48 1.024 48.128 12.288 49.152-26.624 0-16.384 8.192-30.72 28.672-30.72s28.672 13.312 29.696 29.696c-1.024 25.6 12.288 29.696 34.816 28.672zM588.8 289.28c-117.76 0-235.52 0-353.28 0-18.432 0-36.864 0-37.888-24.576-1.024-26.624 17.408-28.672 37.888-28.672 57.344 0 114.688 0 172.032 0 60.416 0 120.832 0 181.248 0 19.456 0 35.84 5.12 35.84 26.624s-16.384 26.624-35.84 26.624zM229.376 391.68c75.776 0 151.552 0 227.328 0 17.408 0 31.744 5.12 32.768 25.6 1.024 23.552-15.36 28.672-33.792 28.672-35.84 0-71.68 0-107.52 0-38.912 0-76.8 0-115.712 0-19.456 0-34.816-4.096-34.816-27.648 0-21.504 14.336-26.624 31.744-26.624z" />
<glyph unicode="&#xe901;" glyph-name="outline-star" d="M884.736 573.952c-65.536 10.24-131.072 21.504-196.608 28.672-28.672 3.072-40.96 17.408-51.2 40.96-29.696 65.536-60.416 130.048-91.136 194.56-7.168 15.36-12.288 33.792-34.816 32.768-18.432-1.024-23.552-17.408-29.696-31.744-31.744-66.56-63.488-132.096-94.208-198.656-10.24-22.528-22.528-33.792-48.128-36.864-63.488-7.168-126.976-19.456-191.488-28.672-22.528-3.072-47.104-4.096-56.32-27.648-8.192-23.552 15.36-35.84 29.696-49.152 44.032-45.056 87.040-91.136 133.12-134.144 25.6-23.552 31.744-48.128 24.576-81.92-14.336-71.68-25.6-143.36-37.888-216.064 0-34.816 15.36-47.104 48.128-29.696 63.488 33.792 125.952 68.608 187.392 104.448 24.576 14.336 45.056 15.36 70.656 0 58.368-34.816 118.784-66.56 178.176-99.328 14.336-8.192 26.624-22.528 46.080-9.216 17.408 13.312 12.288 29.696 9.216 46.080-12.288 68.608-23.552 137.216-35.84 205.824-6.144 32.768 2.048 58.368 27.648 81.92 47.104 44.032 92.16 91.136 137.216 137.216 13.312 13.312 30.72 27.648 22.528 48.128-7.168 18.432-28.672 20.48-47.104 22.528zM825.344 496.128c-17.408-20.48-32.768-46.080-54.272-60.416-97.28-61.44-87.040-148.48-63.488-240.64 4.096-16.384 4.096-33.792 6.144-50.176 0 0 0 0 0 0 11.264-10.24 13.312-23.552 5.12-35.84-4.096-6.144-11.264-2.048-16.384 4.096-51.2 27.648-102.4 53.248-152.576 82.944-26.624 15.36-48.128 14.336-75.776 0-55.296-28.672-106.496-66.56-172.032-89.088 9.216 56.32 15.36 108.544 26.624 158.72 11.264 52.224 8.192 95.232-36.864 132.096-32.768 26.624-60.416 59.392-90.112 90.112-8.192 8.192-21.504 15.36-17.408 28.672s17.408 13.312 29.696 15.36c52.224 7.168 104.448 15.36 156.672 20.48 28.672 3.072 41.984 19.456 52.224 41.984 28.672 59.392 57.344 118.784 90.112 186.368 29.696-63.488 57.344-119.808 81.92-177.152 14.336-32.768 33.792-51.2 71.68-53.248 49.152-3.072 97.28-13.312 146.432-19.456 10.24-1.024 22.528-2.048 26.624-12.288 4.096-8.192-8.192-14.336-14.336-22.528z" />
<glyph unicode="&#xe902;" glyph-name="close" d="M102.4 33.28c92.16 110.592 179.2 215.040 266.24 318.464 81.92 97.28 82.944 95.232 1.024 191.488-88.064 103.424-174.080 207.872-267.264 319.488 72.704 10.24 128 18.432 176.128-48.128 62.464-87.040 137.216-163.84 204.8-247.808 24.576-30.72 38.912-37.888 66.56-2.048 62.464 79.872 135.168 151.552 192.512 234.496 47.104 67.584 103.424 79.872 176.128 65.536 6.144-23.552-14.336-33.792-25.6-47.104-93.184-112.64-186.368-225.28-281.6-335.872-22.528-25.6-23.552-40.96-1.024-67.584 94.208-108.544 185.344-220.16 278.528-330.752 12.288-14.336 29.696-25.6 32.768-52.224-66.56-9.216-122.88-12.288-171.008 55.296-62.464 88.064-140.288 166.912-207.872 251.904-21.504 26.624-30.72 23.552-51.2-1.024-66.56-81.92-141.312-157.696-200.704-242.688-48.128-67.584-104.448-78.848-188.416-61.44z" />
<glyph unicode="&#xe903;" glyph-name="star-fill" d="M879.616 570.88c-64.512 9.216-129.024 21.504-194.56 28.672-29.696 3.072-41.984 16.384-53.248 40.96-27.648 61.44-56.32 121.856-86.016 182.272-7.168 14.336-10.24 32.768-31.744 33.792-22.528 1.024-29.696-17.408-36.864-33.792-29.696-62.464-59.392-124.928-87.040-187.392-9.216-21.504-21.504-32.768-47.104-35.84-66.56-7.168-133.12-19.456-199.68-29.696-16.384-2.048-33.792-5.12-39.936-23.552-5.12-16.384 7.168-27.648 17.408-37.888 46.080-47.104 91.136-95.232 139.264-140.288 23.552-22.528 32.768-43.008 24.576-77.824-15.36-68.608-23.552-139.264-34.816-204.8-1.024-48.128 13.312-56.32 53.248-34.816 60.416 32.768 120.832 65.536 181.248 100.352 19.456 11.264 34.816 10.24 54.272 0 59.392-34.816 119.808-67.584 181.248-100.352 12.288-6.144 24.576-18.432 40.96-7.168 17.408 11.264 14.336 28.672 12.288 45.056-11.264 69.632-21.504 139.264-34.816 207.872-5.12 27.648 0 47.104 19.456 66.56 48.128 47.104 95.232 95.232 142.336 143.36 11.264 11.264 26.624 22.528 19.456 41.984-7.168 16.384-23.552 20.48-39.936 22.528z" />
<glyph unicode="&#xe904;" glyph-name="bottom-arrow" d="M883.712 596.48c-112.64-135.168-217.088-260.096-322.56-386.048-16.384 15.36-8.192 33.792-9.216 49.152-1.024 183.296-1.024 366.592 0 549.888 0 29.696 0 49.152-39.936 49.152-38.912 0-41.984-16.384-41.984-47.104 2.048-198.656 1.024-397.312 1.024-613.376-114.688 137.216-220.16 263.168-332.8 398.336-6.144-63.488-16.384-111.616 25.6-159.744 103.424-117.76 200.704-240.64 301.056-360.448 41.984-50.176 50.176-49.152 90.112-2.048 96.256 115.712 193.536 231.424 289.792 348.16 53.248 65.536 53.248 66.56 38.912 174.080z" />
<glyph unicode="&#xe905;" glyph-name="top-arrow" d="M883.712 299.52c-112.64 135.168-217.088 260.096-322.56 386.048-16.384-15.36-8.192-33.792-9.216-49.152-1.024-183.296-1.024-366.592 0-549.888 0-29.696 0-49.152-39.936-49.152-38.912 0-41.984 16.384-41.984 47.104 2.048 198.656 1.024 397.312 1.024 613.376-114.688-137.216-220.16-263.168-332.8-398.336-6.144 63.488-16.384 111.616 25.6 159.744 103.424 117.76 200.704 240.64 301.056 360.448 41.984 50.176 50.176 49.152 90.112 2.048 96.256-115.712 193.536-231.424 289.792-348.16 53.248-65.536 53.248-66.56 38.912-174.080z" />
<glyph unicode="&#xe906;" glyph-name="right-arrow" d="M353.28 76.288c134.144 111.616 260.096 217.088 386.048 322.56-15.36 16.384-33.792 8.192-49.152 9.216-183.296 1.024-366.592 1.024-549.888 0-28.672-1.024-48.128 0-48.128 39.936 0 38.912 16.384 41.984 47.104 41.984 197.632-2.048 396.288-1.024 612.352-1.024-137.216 114.688-263.168 220.16-398.336 332.8 63.488 6.144 111.616 16.384 159.744-25.6 117.76-103.424 240.64-200.704 360.448-301.056 50.176-41.984 49.152-50.176 2.048-90.112-115.712-96.256-231.424-193.536-348.16-289.792-65.536-53.248-66.56-53.248-174.080-38.912z" />
<glyph unicode="&#xe907;" glyph-name="left-arrow" d="M285.696 411.136c123.904-103.424 237.568-197.632 362.496-302.080-66.56-4.096-111.616-7.168-155.648 32.768-103.424 93.184-212.992 180.224-321.536 268.288-33.792 27.648-36.864 47.104-1.024 75.776 114.688 93.184 229.376 188.416 342.016 284.672 38.912 32.768 79.872 15.36 126.976 9.216-115.712-95.232-229.376-190.464-342.016-284.672 11.264-17.408 26.624-9.216 37.888-9.216 164.864-1.024 330.752 0 495.616 0 24.576 0 50.176 8.192 49.152-35.84 0-40.96-21.504-37.888-48.128-37.888-176.128-1.024-353.28-1.024-545.792-1.024z" />
<glyph unicode="&#xe908;" glyph-name="edit" d="M271.36 207.36c70.656 20.48 156.672 14.336 223.232 88.064 108.544 120.832 228.352 233.472 345.088 347.136 30.72 29.696 38.912 50.176 2.048 81.92-38.912 33.792-75.776 70.656-109.568 109.568-30.72 36.864-52.224 28.672-81.92-2.048-98.304-101.376-194.56-207.872-302.080-299.008-87.040-75.776-119.808-166.912-131.072-273.408-4.096-35.84 8.192-53.248 54.272-52.224zM308.224 337.408c7.168 26.624 15.36 52.224 36.864 72.704 104.448 102.4 208.896 204.8 309.248 310.272 34.816 35.84 52.224 21.504 81.92-5.12 36.864-32.768 19.456-50.176-6.144-75.776-98.304-97.28-197.632-195.584-294.912-294.912-27.648-27.648-58.368-41.984-95.232-46.080-31.744-4.096-37.888 13.312-31.744 38.912zM872.448 116.224c-240.64 0-481.28 0-721.92 0-29.696 0-50.176-7.168-52.224-41.984-2.048-41.984 27.648-34.816 53.248-35.84 119.808 0 240.64 0 360.448 0s240.64 0 360.448 0c21.504 0 50.176-8.192 52.224 29.696s-18.432 48.128-52.224 48.128z" />
<glyph unicode="&#xe909;" glyph-name="eye2" d="M515.072 755.2c-201.728 0-332.8-120.832-407.552-284.672-8.192-16.384-6.144-32.768 2.048-49.152 28.672-65.536 66.56-125.952 119.808-171.008 225.28-193.536 557.056-123.904 686.080 169.984 7.168 16.384 10.24 32.768 3.072 49.152-74.752 160.768-202.752 282.624-403.456 285.696zM839.68 419.328c-73.728-129.024-176.128-211.968-331.776-210.944-152.576 1.024-252.928 84.992-324.608 211.968-10.24 18.432-11.264 33.792 0 53.248 72.704 129.024 173.056 214.016 284.672 214.016 200.704 0 301.056-86.016 373.76-215.040 10.24-19.456 8.192-34.816-2.048-53.248zM506.88 609.792c-90.112 6.144-163.84-82.944-164.864-159.744-2.048-90.112 73.728-162.816 167.936-162.816 92.16 0 161.792 69.632 162.816 160.768-1.024 97.28-65.536 155.648-165.888 161.792zM507.904 344.576c-59.392 0-104.448 43.008-107.52 103.424-2.048 54.272 47.104 102.4 107.52 102.4 57.344 1.024 105.472-46.080 105.472-102.4 1.024-56.32-47.104-103.424-105.472-103.424z" />
<glyph unicode="&#xe90a;" glyph-name="delete" d="M879.616 722.432c-23.552 1.024-47.104 2.048-70.656 0-39.936-4.096-57.344 8.192-56.32 52.224 1.024 56.32-17.408 101.376-86.016 101.376-104.448 0-208.896 0-313.344 0-45.056 0-80.896-22.528-78.848-65.536 5.12-93.184-48.128-95.232-114.688-88.064-8.192 1.024-17.408 0-25.6-1.024-22.528-4.096-31.744-18.432-32.768-39.936-1.024-24.576 9.216-36.864 32.768-34.816 34.816 3.072 41.984-14.336 43.008-46.080 7.168-160.768 16.384-322.56 24.576-483.328 3.072-73.728 25.6-96.256 101.376-97.28 68.608-1.024 136.192 0 204.8 0 72.704 0 144.384-1.024 217.088 0 67.584 1.024 90.112 25.6 93.184 93.184 8.192 162.816 17.408 326.656 24.576 489.472 1.024 27.648 6.144 46.080 38.912 44.032 26.624-2.048 39.936 9.216 37.888 36.864-1.024 25.6-14.336 38.912-39.936 38.912zM390.144 800.256c82.944-1.024 165.888-1.024 248.832 0 25.6 0 38.912-7.168 39.936-35.84 1.024-29.696-10.24-41.984-40.96-40.96-41.984 1.024-84.992 0-126.976 0-39.936 0-80.896 1.024-120.832 0-28.672-1.024-43.008 7.168-43.008 38.912-1.024 32.768 15.36 37.888 43.008 37.888zM753.664 159.232c-2.048-45.056-20.48-66.56-71.68-64.512-114.688 4.096-230.4 3.072-346.112 0-45.056-1.024-62.464 18.432-64.512 57.344-6.144 151.552-10.24 302.080-16.384 453.632-1.024 31.744 13.312 40.96 41.984 39.936 72.704-1.024 145.408 0 218.112 0 68.608 0 136.192-1.024 204.8 1.024 34.816 1.024 51.2-8.192 49.152-46.080-6.144-147.456-10.24-293.888-15.36-441.344z" />
<glyph unicode="&#xe90b;" glyph-name="filter" d="M837.632 888.32c-107.52-2.048-215.040 0-322.56 0-111.616 0-223.232 0-334.848 0-28.672 0-55.296-3.072-68.608-33.792-21.504-49.152 0-167.936 38.912-207.872 63.488-64.512 126.976-129.024 192.512-192.512 29.696-28.672 43.008-59.392 41.984-100.352-2.048-86.016-1.024-173.056 0-259.072 1.024-69.632 21.504-81.92 84.992-51.2 44.032 21.504 86.016 45.056 130.048 64.512 36.864 16.384 59.392 41.984 51.2 83.968-31.744 166.912 33.792 292.864 166.912 389.12 5.12 4.096 8.192 9.216 13.312 13.312 74.752 53.248 94.208 125.952 90.112 215.040-3.072 62.464-26.624 80.896-83.968 78.848zM808.96 697.856c-69.632-67.584-136.192-138.24-206.848-204.8-29.696-28.672-43.008-58.368-40.96-100.352 3.072-52.224 1.024-105.472 1.024-157.696 0-21.504 2.048-44.032-22.528-54.272-18.432-8.192-36.864-29.696-57.344-19.456-18.432 9.216-8.192 34.816-9.216 52.224-1.024 29.696 0 59.392 0 88.064 28.672 112.64-26.624 188.416-107.52 258.048-51.2 44.032-95.232 95.232-144.384 142.336-24.576 23.552-32.768 50.176-22.528 79.872s39.936 16.384 61.44 16.384c168.96 1.024 336.896 1.024 505.856 0 20.48 0 51.2 12.288 60.416-18.432 8.192-27.648 7.168-57.344-17.408-81.92z" />
<glyph unicode="&#xe90c;" glyph-name="notifications" d="M795.685 209.431h-21.874v317.18c0 129.88-95.701 240.619-224.214 258.393v36.913c0 20.507-17.773 36.913-38.28 35.546-19.14 0-35.546-16.406-35.546-35.546v-36.913c-128.513-19.14-224.214-128.513-224.214-258.393v-317.18h-21.874c-16.406 0-30.077-13.672-30.077-30.077 0 0 0 0 0 0v-30.077c0-4.101 2.734-6.836 6.836-6.836h200.972c0-57.421 46.483-103.904 103.904-103.904s103.904 46.483 103.904 103.904h200.972c4.101 0 6.836 2.734 6.836 6.836v30.077c2.734 16.406-10.937 30.077-27.343 30.077 0 0 0 0 0 0zM512.684 97.324c-24.609 0-45.116 20.507-45.116 45.116h90.232c-1.367-24.609-20.507-45.116-45.116-45.116zM318.547 209.431v317.18c0 106.638 87.498 194.136 194.136 194.136s194.136-87.498 194.136-194.136v-317.18h-388.272z" />
<glyph unicode="&#xe90d;" glyph-name="location" d="M511.316 858.83c-157.223 0-284.368-127.146-285.736-285.736 0-198.238 285.736-534.558 285.736-534.558s284.368 347.258 284.368 534.558c0 158.59-127.146 285.736-284.368 285.736zM597.447 489.698c-23.242-23.242-53.319-35.546-86.131-35.546s-62.889 12.304-86.131 35.546c-47.85 47.85-47.85 124.411 0 172.262 23.242 23.242 53.319 35.546 86.131 35.546s62.889-12.304 86.131-35.546c47.85-47.85 47.85-124.411 0-172.262z" />
<glyph unicode="&#xe90e;" glyph-name="search" d="M918.729 97.324l-266.595 266.595c103.904 135.348 77.928 328.117-57.421 432.021-53.319 41.015-118.943 62.889-187.3 64.256-169.527 0-307.61-138.083-307.61-307.61 0-82.029 32.812-159.957 90.232-217.378 109.372-109.372 283.001-120.31 404.678-25.976l266.595-266.595c1.367-1.367 4.101-2.734 5.469-2.734 2.734 0 4.101 1.367 5.469 2.734l45.116 45.116c1.367 1.367 1.367 1.367 1.367 2.734 2.734 1.367 2.734 4.101 0 6.836v0zM571.471 388.529c-90.232-90.232-235.151-90.232-325.383 0s-90.232 235.151 0 325.383c90.232 90.232 235.151 90.232 325.383 0 43.749-43.749 66.991-101.17 66.991-162.692s-24.609-118.943-66.991-162.692z" />
<glyph unicode="&#xe90f;" glyph-name="settings" d="M910.526 337.944l-62.889 54.686c5.469 36.913 5.469 75.194 0 112.107l62.889 54.686c9.57 8.203 13.672 21.874 9.57 34.179l-1.367 2.734c-17.773 49.218-43.749 94.334-76.561 133.981l-1.367 1.367c-8.203 9.57-21.874 13.672-34.179 9.57l-77.928-27.343c-28.71 23.242-61.522 42.382-97.068 56.053l-15.039 82.029c-2.734 12.304-12.304 23.242-24.609 24.609h-2.734c-50.585 9.57-102.537 9.57-153.121 0h-2.734c-12.304-2.734-23.242-12.304-24.609-24.609l-15.039-82.029c-34.179-13.672-66.991-31.445-95.701-54.686l-79.295 28.71c-12.304 4.101-25.976 0-34.179-9.57l-1.367-1.367c-32.812-39.648-60.155-84.764-76.561-133.981l-1.367-2.734c-4.101-12.304-1.367-25.976 9.57-34.179l64.256-54.686c-5.469-36.913-5.469-73.826 0-110.74l-64.256-54.686c-9.57-8.203-13.672-21.874-9.57-34.179l1.367-2.734c17.773-49.218 43.749-94.334 76.561-133.981l1.367-1.367c8.203-9.57 21.874-13.672 34.179-9.57l79.295 28.71c28.71-23.242 61.522-42.382 95.701-54.686l15.039-82.029c2.734-12.304 12.304-23.242 24.609-24.609h2.734c50.585-9.57 102.537-9.57 153.121 0h2.734c12.304 2.734 23.242 12.304 24.609 24.609l15.039 82.029c35.546 13.672 66.991 31.445 97.068 56.053l77.928-27.343c12.304-4.101 25.976 0 34.179 9.57l1.367 1.367c32.812 39.648 60.155 84.764 76.561 133.981l1.367 2.734c4.101 6.836 0 19.14-9.57 27.343zM779.279 492.433c5.469-30.077 5.469-60.155 0-88.865l-6.836-38.28 72.459-61.522c-10.937-24.609-24.609-49.218-41.015-71.092l-90.232 31.445-30.077-24.609c-23.242-19.14-49.218-34.179-76.561-43.749l-36.913-13.672-17.773-94.334c-27.343-2.734-54.686-2.734-82.029 0l-17.773 94.334-36.913 13.672c-27.343 10.937-53.319 25.976-76.561 43.749l-30.077 24.609-90.232-31.445c-16.406 21.874-30.077 46.483-41.015 71.092l72.459 62.889-6.836 38.28c-2.734 15.039-4.101 28.71-4.101 43.749s1.367 30.077 4.101 43.749l6.836 38.28-72.459 62.889c10.937 24.609 24.609 49.218 41.015 71.092l90.232-31.445 30.077 24.609c23.242 19.14 47.85 34.179 76.561 43.749l36.913 13.672 17.773 94.334c27.343 2.734 54.686 2.734 82.029 0l17.773-94.334 36.913-13.672c27.343-10.937 53.319-25.976 76.561-43.749l30.077-24.609 90.232 31.445c16.406-21.874 30.077-46.483 41.015-71.092l-72.459-61.522 6.836-39.648zM511.316 627.781c-94.334 0-169.527-76.561-169.527-169.527 0-94.334 76.561-169.527 169.527-169.527 94.334 0 169.527 76.561 169.527 169.527 0 0 0 0 0 0 1.367 94.334-75.194 169.527-169.527 169.527v0zM587.877 381.693c-42.382-42.382-110.74-42.382-153.121 0s-42.382 110.74 0 153.121c42.382 42.382 110.74 42.382 153.121 0 20.507-20.507 31.445-47.85 31.445-76.561s-10.937-56.053-31.445-76.561v0z" />
<glyph unicode="&#xe910;" glyph-name="time" d="M511.316 858.83c-226.948 0-410.147-183.199-410.147-410.147s183.199-410.147 410.147-410.147 410.147 183.199 410.147 410.147c0 226.948-183.199 410.147-410.147 410.147zM511.316 90.489c-198.238 0-358.195 161.324-358.195 358.195 0 198.238 161.324 358.195 358.195 358.195 198.238 0 358.195-161.324 358.195-358.195v0c0-198.238-159.957-358.195-358.195-358.195zM537.292 704.342h-51.952v-266.595l161.324-161.324 36.913 36.913-146.286 146.286v244.721z" />
<glyph unicode="&#xe911;" glyph-name="eye1" d="M910.526 463.722c-34.179 42.382-72.459 82.029-114.841 116.208-38.28 31.445-80.662 58.788-125.778 79.295-47.85 21.874-98.435 35.546-150.387 36.913h-13.672c-51.952-1.367-103.904-13.672-150.387-36.913-45.116-21.874-87.498-47.85-125.778-79.295-42.382-34.179-80.662-72.459-114.841-116.208l-12.304-16.406 12.304-16.406c34.179-42.382 72.459-82.029 114.841-116.208 38.28-31.445 80.662-58.788 125.778-79.295 47.85-21.874 98.435-35.546 150.387-36.913h13.672c51.952 1.367 103.904 13.672 150.387 36.913 45.116 21.874 87.498 47.85 125.778 79.295 42.382 34.179 80.662 72.459 114.841 116.208l12.304 16.406-12.304 16.406zM310.344 318.804c-17.773 10.937-34.179 24.609-50.585 36.913-34.179 27.343-65.623 58.788-94.334 91.599 28.71 32.812 60.155 64.256 94.334 91.599 16.406 13.672 32.812 25.976 50.585 36.913-46.483-77.928-46.483-177.73 0-257.025v0zM516.785 250.446h-10.937c-109.372 8.203-190.035 103.904-181.832 213.276 8.203 97.068 84.764 173.629 181.832 181.832h10.937c109.372-8.203 190.035-103.904 181.832-213.276-6.836-97.068-84.764-173.629-181.832-181.832zM764.24 355.717c-16.406-13.672-32.812-25.976-50.585-36.913 46.483 80.662 46.483 179.097 0 258.393 17.773-10.937 34.179-24.609 50.585-36.913 34.179-27.343 65.623-58.788 94.334-91.599-28.71-34.179-60.155-64.256-94.334-92.967v0zM511.604 591.442c-79.295 0-143.551-64.256-143.551-143.551s64.256-143.551 143.551-143.551c79.295 0 143.551 64.256 143.551 143.551s-64.256 143.551-143.551 143.551zM511.604 354.924c-51.952 0-92.967 41.015-92.967 92.967s41.015 92.967 92.967 92.967c51.952 0 92.967-41.015 92.967-92.967v0c0-50.585-41.015-92.967-92.967-92.967z" />
<glyph unicode="&#xe912;" glyph-name="Processing" horiz-adv-x="1023" d="M772.779 323.058c-2.731-16.384-6.827-34.133-13.653-49.152l53.248-49.152c-6.827-16.384-16.384-31.403-25.941-45.056l-69.632 21.845c-10.923-13.653-23.211-25.941-36.864-36.864l21.845-69.632c-15.019-9.557-30.037-19.115-45.056-25.941l-49.152 53.248c-16.384-5.461-32.768-10.923-49.152-13.653l-15.019-70.997c-8.192 0-17.749-1.365-25.941-1.365s-17.749 0-25.941 1.365l-15.019 70.997c-16.384 2.731-34.133 6.827-49.152 13.653l-49.152-53.248c-16.384 6.827-31.403 16.384-45.056 25.941l21.845 69.632c-13.653 10.923-25.941 23.211-36.864 36.864l-69.632-21.845c-9.557 15.019-19.115 30.037-25.941 45.056l53.248 49.152c-5.461 16.384-10.923 32.768-13.653 49.152l-70.997 15.019c0 8.192-1.365 17.749-1.365 25.941s0 17.749 1.365 25.941l70.997 15.019c2.731 16.384 6.827 34.133 13.653 49.152l-53.248 49.152c6.827 16.384 16.384 31.403 25.941 45.056l69.632-21.845c10.923 13.653 23.211 25.941 36.864 36.864l-21.845 69.632c15.019 9.557 30.037 19.115 45.056 25.941l49.152-53.248c16.384 5.461 32.768 10.923 49.152 13.653l15.019 70.997c8.192 0 17.749 1.365 25.941 1.365s17.749 0 25.941-1.365l15.019-70.997c16.384-2.731 34.133-6.827 49.152-13.653l49.152 53.248c16.384-6.827 31.403-16.384 45.056-25.941l-21.845-69.632c13.653-10.923 25.941-23.211 36.864-36.864l69.632 21.845c9.557-15.019 19.115-30.037 25.941-45.056l-53.248-49.152c5.461-16.384 10.923-32.768 13.653-49.152l70.997-15.019c0-8.192 1.365-17.749 1.365-25.941s0-17.749-1.365-25.941l-70.997-15.019zM518.827 536.050c-94.208 0-172.032-76.459-172.032-172.032 0-94.208 76.459-172.032 172.032-172.032s172.032 76.459 172.032 172.032c0 95.573-76.459 172.032-172.032 172.032v0zM548.864 856.904l-24.576-24.576 23.211-23.211c-9.557 0-19.115 1.365-28.672 1.365-132.437 0-258.048-58.709-342.699-161.109l25.941-21.845c77.824 94.208 193.877 148.821 316.757 148.821 9.557 0 17.749 0 25.941-1.365l-21.845-21.845 24.576-24.576 64.171 64.171-62.805 64.171z" />
<glyph unicode="&#xe913;" glyph-name="error" d="M905.216 243.62l-289.792 532.48c-33.792 56.32-107.52 74.752-164.864 40.96-17.408-10.24-31.744-24.576-41.984-41.984l-289.792-532.48c-33.792-57.344-15.36-131.072 41.984-164.864 18.432-11.264 39.936-16.384 61.44-16.384h578.56c66.56 0 120.832 54.272 120.832 120.832 0 21.504-6.144 41.984-16.384 61.44zM512 157.604c-26.624 0-48.128 21.504-48.128 48.128s21.504 48.128 48.128 48.128c26.624 0 48.128-21.504 48.128-48.128s-21.504-48.128-48.128-48.128v0zM560.128 350.116c1.024-26.624-20.48-49.152-46.080-49.152-26.624-1.024-49.152 20.48-49.152 46.080 0 1.024 0 2.048 0 3.072v239.616c-1.024 26.624 20.48 49.152 46.080 49.152 26.624 1.024 49.152-20.48 49.152-46.080 0-1.024 0-2.048 0-3.072v-239.616z" />
<glyph unicode="&#xe914;" glyph-name="email" d="M514.048 738.816c119.808 0 238.592 0 358.4 0 43.008 0 49.152-6.144 49.152-50.176 0-160.768 0-320.512 0-481.28 0-44.032-6.144-50.176-49.152-50.176-239.616 0-480.256 0-719.872 0-46.080 0-50.176 3.072-50.176 48.128 0 161.792 0 323.584 0 485.376 0 45.056 3.072 48.128 50.176 48.128 119.808 0 240.64 0 361.472 0zM157.696 626.176c-1.024-20.48-3.072-32.768-3.072-45.056 0-109.568 1.024-219.136-1.024-327.68-1.024-35.84 11.264-43.008 45.056-43.008 207.872 1.024 414.72 1.024 622.592 1.024 13.312 0 26.624 1.024 38.912 2.048 0 138.24 0 272.384 0 411.648-107.52-82.944-209.92-160.768-311.296-240.64-26.624-21.504-48.128-25.6-74.752-1.024-12.288 12.288-27.648 21.504-40.96 31.744-89.088 67.584-178.176 136.192-275.456 210.944zM836.608 675.328c-1.024 2.048-2.048 5.12-3.072 7.168-216.064 0-431.104 0-648.192 0 2.048-5.12 2.048-9.216 3.072-10.24 102.4-78.848 203.776-157.696 307.2-235.52 7.168-5.12 25.6-3.072 33.792 3.072 31.744 21.504 61.44 46.080 92.16 69.632 72.704 55.296 143.36 110.592 215.040 165.888z" />
<glyph unicode="&#xe915;" glyph-name="glossary" d="M513.024 716.288c17.408 3.072 36.864 9.216 55.296 10.24 95.232 1.024 190.464 1.024 285.696 0 47.104 0 67.584-19.456 67.584-66.56 0-123.904 0-246.784 0-370.688 0-48.128-18.432-67.584-65.536-68.608-108.544 0-217.088 0-328.704 0 0-14.336 0-32.768 0-52.224-10.24 0-17.408 0-27.648 0 0 17.408 0 35.84 0 52.224-109.568 0-217.088 0-323.584 0-55.296 0-72.704 17.408-72.704 72.704 0 121.856 0 243.712 0 365.568 0 49.152 19.456 67.584 68.608 67.584 95.232 0 190.464 1.024 285.696 0 17.408 0 34.816-6.144 55.296-10.24zM894.976 474.624c0 62.464 0 124.928 0 186.368 0 31.744-8.192 40.96-40.96 40.96-96.256 0-192.512 0-288.768 0-31.744 0-40.96-9.216-40.96-40.96 0-124.928 0-248.832 0-373.76 0-32.768 9.216-41.984 41.984-41.984 95.232 0 190.464 0 285.696 0 32.768 0 41.984 9.216 41.984 41.984 1.024 62.464 1.024 124.928 1.024 187.392zM129.024 473.6c0-62.464 0-124.928 0-186.368 0-30.72 9.216-40.96 40.96-40.96 96.256 0 192.512 0 288.768 0 30.72 0 40.96 10.24 40.96 40.96 0 124.928 0 248.832 0 373.76 0 32.768-8.192 41.984-41.984 41.984-95.232 0-190.464 0-285.696 0-33.792 0-41.984-9.216-41.984-41.984-1.024-63.488-1.024-124.928-1.024-187.392zM670.72 364.032c45.056 0 83.968 0 124.928 0 3.072-15.36 8.192-28.672-14.336-28.672-53.248 0-107.52 0-172.032 0 46.080 71.68 93.184 133.12 140.288 203.776-36.864 0-67.584 1.024-97.28 0-19.456-1.024-28.672 5.12-20.48 27.648 55.296 0 111.616 0 176.128 0-43.008-70.656-91.136-131.072-137.216-202.752zM192.512 337.408c27.648 73.728 54.272 146.432 81.92 218.112 3.072 6.144 15.36 12.288 23.552 12.288 9.216 0 24.576-5.12 27.648-11.264 28.672-71.68 54.272-144.384 81.92-217.088-26.624-9.216-44.032-4.096-48.128 23.552-4.096 25.6-18.432 34.816-43.008 30.72-5.12-1.024-11.264-1.024-17.408 0-32.768 5.12-55.296-3.072-61.44-40.96-4.096-19.456-7.168-18.432-45.056-15.36zM303.104 524.8c-2.048 0-5.12 0-7.168 0-11.264-31.744-21.504-64.512-32.768-98.304 26.624 0 48.128 0 73.728 0-12.288 34.816-23.552 66.56-33.792 98.304z" />
<glyph unicode="&#xe916;" glyph-name="logout" d="M394.24 675.328c0-7.168 0-13.312 1.024-18.432 5.12-40.96-6.144-69.632-40.96-98.304-100.352-84.992-101.376-237.568-9.216-332.8 90.112-93.184 239.616-94.208 331.776-2.048 93.184 93.184 94.208 247.808-6.144 332.8-41.984 35.84-46.080 71.68-40.96 116.736 113.664-27.648 204.8-177.152 192.512-312.32-14.336-153.6-140.288-275.456-293.888-283.648-152.576-8.192-292.864 98.304-322.56 245.76-29.696 149.504 51.2 303.104 188.416 352.256zM473.088 623.104c0 56.32 1.024 112.64 0 168.96-1.024 20.48 5.12 27.648 26.624 26.624 52.224-1.024 52.224 0 52.224-52.224 0-102.4-1.024-205.824 1.024-308.224 0-23.552-5.12-33.792-29.696-29.696-8.192 1.024-17.408 1.024-25.6 0-18.432-2.048-23.552 5.12-23.552 23.552-1.024 56.32-1.024 113.664-1.024 171.008z" />
<glyph unicode="&#xe917;" glyph-name="user" d="M521.216 823.808c92.16 0 175.104-55.296 210.944-141.312 34.816-84.992 15.36-184.32-53.248-246.784-23.552-21.504-14.336-25.6 6.144-36.864 106.496-60.416 165.888-151.552 179.2-273.408 1.024-12.288 6.144-32.768-17.408-28.672-17.408 3.072-48.128-21.504-52.224 23.552-12.288 142.336-130.048 248.832-271.36 248.832s-261.12-106.496-272.384-247.808c-4.096-44.032-33.792-22.528-52.224-25.6-26.624-4.096-19.456 17.408-17.408 30.72 14.336 120.832 74.752 212.992 181.248 271.36 23.552 12.288 24.576 16.384 5.12 34.816-68.608 64.512-89.088 160.768-54.272 246.784 33.792 87.040 116.736 143.36 207.872 144.384zM365.568 597.504c-1.024-87.040 68.608-157.696 154.624-157.696 89.088-1.024 158.72 68.608 158.72 156.672 0 84.992-68.608 154.624-153.6 155.648-88.064 2.048-158.72-66.56-159.744-154.624z" />
<glyph unicode="&#xe918;" glyph-name="reports" d="M513.024 857.6c226.304-1.024 410.624-186.368 408.576-411.648s-185.344-407.552-410.624-407.552c-226.304 1.024-410.624 186.368-408.576 411.648s185.344 408.576 410.624 407.552zM513.024 786.944c-188.416 0-338.944-148.48-339.968-335.872-1.024-190.464 148.48-340.992 337.92-342.016 188.416 0 339.968 149.504 339.968 335.872 1.024 190.464-148.48 342.016-337.92 342.016zM522.24 663.040c50.176-2.048 99.328-25.6 125.952-82.944 21.504-48.128 11.264-93.184-22.528-132.096-13.312-15.36-28.672-25.6-47.104-33.792-22.528-10.24-36.864-25.6-35.84-52.224 1.024-31.744-23.552-16.384-36.864-19.456-17.408-3.072-22.528 5.12-21.504 21.504 2.048 43.008 18.432 76.8 58.368 97.28 11.264 6.144 23.552 11.264 33.792 19.456 24.576 20.48 30.72 46.080 19.456 75.776-12.288 30.72-51.2 50.176-92.16 46.080-37.888-3.072-69.632-25.6-73.728-60.416-4.096-36.864-29.696-25.6-48.128-23.552-25.6 2.048-12.288 23.552-10.24 35.84 7.168 62.464 68.608 108.544 150.528 108.544zM547.84 247.296c-1.024-22.528-13.312-35.84-34.816-36.864-22.528-1.024-36.864 12.288-36.864 35.84 0 21.504 13.312 35.84 33.792 35.84 22.528 2.048 35.84-12.288 37.888-34.816z" />
<glyph unicode="&#xe919;" glyph-name="q-bottom" d="M105.271 708.443l392.374-542.761c5.469-8.203 16.406-9.57 24.609-4.101 1.367 1.367 2.734 2.734 4.101 4.101l392.374 542.761c5.469 8.203 4.101 19.14-4.101 24.609-2.734 2.734-6.836 4.101-10.937 4.101h-103.904c-23.242 0-43.749-10.937-57.421-28.71l-231.049-321.282-232.417 321.282c-13.672 17.773-34.179 28.71-57.421 28.71h-103.904c-9.57 0-17.773-8.203-17.773-17.773 2.734-4.101 4.101-8.203 5.469-10.937z" />
<glyph unicode="&#xe91a;" glyph-name="q-top" d="M102.537 176.619c0-9.57 8.203-17.773 17.773-17.773h103.904c23.242 0 43.749 10.937 57.421 28.71l232.417 321.282 231.049-321.282c13.672-17.773 34.179-28.71 57.421-28.71h103.904c4.101 0 8.203 1.367 10.937 4.101 8.203 5.469 9.57 16.406 4.101 24.609l-392.374 542.761c-1.367 1.367-2.734 2.734-4.101 4.101-8.203 5.469-19.14 4.101-24.609-4.101l-392.374-542.761c-4.101-2.734-5.469-6.836-5.469-10.937z" />
<glyph unicode="&#xe91b;" glyph-name="q-left" d="M783.381 38.537c9.57 0 17.773 8.203 17.773 17.773v103.904c0 23.242-10.937 43.749-28.71 57.421l-321.282 232.417 321.282 231.049c17.773 13.672 28.71 34.179 28.71 57.421v103.904c0 4.101-1.367 8.203-4.101 10.937-5.469 8.203-16.406 9.57-24.609 4.101l-542.761-392.374c-1.367-1.367-2.734-2.734-4.101-4.101-5.469-8.203-4.101-19.14 4.101-24.609l542.761-392.374c4.101-5.469 6.836-5.469 10.937-5.469z" />
<glyph unicode="&#xe91c;" glyph-name="q-right" d="M251.557 41.271l542.761 392.374c8.203 5.469 9.57 16.406 4.101 24.609-1.367 1.367-2.734 2.734-4.101 4.101l-542.761 392.374c-8.203 5.469-19.14 4.101-24.609-4.101-2.734-2.734-4.101-6.836-4.101-10.937v-103.904c0-23.242 10.937-43.749 28.71-57.421l321.282-231.049-321.282-232.417c-17.773-13.672-28.71-34.179-28.71-57.421v-103.904c0-9.57 8.203-17.773 17.773-17.773 4.101 2.734 8.203 2.734 10.937 5.469z" />
<glyph unicode="&#xe9ce;" glyph-name="eye" d="M512 768c-223.318 0-416.882-130.042-512-320 95.118-189.958 288.682-320 512-320 223.312 0 416.876 130.042 512 320-95.116 189.958-288.688 320-512 320zM764.45 598.296c60.162-38.374 111.142-89.774 149.434-150.296-38.292-60.522-89.274-111.922-149.436-150.296-75.594-48.218-162.89-73.704-252.448-73.704-89.56 0-176.858 25.486-252.452 73.704-60.158 38.372-111.138 89.772-149.432 150.296 38.292 60.524 89.274 111.924 149.434 150.296 3.918 2.5 7.876 4.922 11.86 7.3-9.96-27.328-15.41-56.822-15.41-87.596 0-141.382 114.616-256 256-256 141.382 0 256 114.618 256 256 0 30.774-5.452 60.268-15.408 87.598 3.978-2.378 7.938-4.802 11.858-7.302v0zM512 544c0-53.020-42.98-96-96-96s-96 42.98-96 96 42.98 96 96 96 96-42.982 96-96z" />
<glyph unicode="&#xe9d1;" glyph-name="eye-blocked" d="M945.942 945.942c-18.746 18.744-49.136 18.744-67.882 0l-202.164-202.164c-51.938 15.754-106.948 24.222-163.896 24.222-223.318 0-416.882-130.042-512-320 41.122-82.124 100.648-153.040 173.022-207.096l-158.962-158.962c-18.746-18.746-18.746-49.136 0-67.882 9.372-9.374 21.656-14.060 33.94-14.060s24.568 4.686 33.942 14.058l864 864c18.744 18.746 18.744 49.138 0 67.884zM416 640c42.24 0 78.082-27.294 90.92-65.196l-121.724-121.724c-37.902 12.838-65.196 48.68-65.196 90.92 0 53.020 42.98 96 96 96zM110.116 448c38.292 60.524 89.274 111.924 149.434 150.296 3.918 2.5 7.876 4.922 11.862 7.3-9.962-27.328-15.412-56.822-15.412-87.596 0-54.89 17.286-105.738 46.7-147.418l-60.924-60.924c-52.446 36.842-97.202 83.882-131.66 138.342zM768 518c0 27.166-4.256 53.334-12.102 77.898l-321.808-321.808c24.568-7.842 50.742-12.090 77.91-12.090 141.382 0 256 114.618 256 256zM830.026 670.026l-69.362-69.362c1.264-0.786 2.53-1.568 3.786-2.368 60.162-38.374 111.142-89.774 149.434-150.296-38.292-60.522-89.274-111.922-149.436-150.296-75.594-48.218-162.89-73.704-252.448-73.704-38.664 0-76.902 4.76-113.962 14.040l-76.894-76.894c59.718-21.462 123.95-33.146 190.856-33.146 223.31 0 416.876 130.042 512 320-45.022 89.916-112.118 166.396-193.974 222.026z" />
<glyph unicode="&#xea0f;" glyph-name="cross" d="M1014.662 137.34c-0.004 0.004-0.008 0.008-0.012 0.010l-310.644 310.65 310.644 310.65c0.004 0.004 0.008 0.006 0.012 0.010 3.344 3.346 5.762 7.254 7.312 11.416 4.246 11.376 1.824 24.682-7.324 33.83l-146.746 146.746c-9.148 9.146-22.45 11.566-33.828 7.32-4.16-1.55-8.070-3.968-11.418-7.31 0-0.004-0.004-0.006-0.008-0.010l-310.648-310.652-310.648 310.65c-0.004 0.004-0.006 0.006-0.010 0.010-3.346 3.342-7.254 5.76-11.414 7.31-11.38 4.248-24.682 1.826-33.83-7.32l-146.748-146.748c-9.148-9.148-11.568-22.452-7.322-33.828 1.552-4.16 3.97-8.072 7.312-11.416 0.004-0.002 0.006-0.006 0.010-0.010l310.65-310.648-310.65-310.652c-0.002-0.004-0.006-0.006-0.008-0.010-3.342-3.346-5.76-7.254-7.314-11.414-4.248-11.376-1.826-24.682 7.322-33.83l146.748-146.746c9.15-9.148 22.452-11.568 33.83-7.322 4.16 1.552 8.070 3.97 11.416 7.312 0.002 0.004 0.006 0.006 0.010 0.010l310.648 310.65 310.648-310.65c0.004-0.002 0.008-0.006 0.012-0.008 3.348-3.344 7.254-5.762 11.414-7.314 11.378-4.246 24.684-1.826 33.828 7.322l146.746 146.748c9.148 9.148 11.57 22.454 7.324 33.83-1.552 4.16-3.97 8.068-7.314 11.414z" />
<glyph unicode="&#xea10;" glyph-name="checkmark" d="M864 832l-480-480-224 224-160-160 384-384 640 640z" />
</font>
</defs>
</svg>
