<?xml version="1.0" encoding="utf-8"?>
<!-- Generator: Adobe Illustrator 19.0.0, SVG Export Plug-In . SVG Version: 6.00 Build 0)  -->
<svg version="1.1" id="Layer_1" xmlns="http://www.w3.org/2000/svg" xmlns:xlink="http://www.w3.org/1999/xlink" x="0px" y="0px"
     viewBox="0 0 159.1 156.3" style="enable-background:new 0 0 159.1 156.3;" xml:space="preserve">
<style type="text/css">
    .st0{fill:#575f60;}
</style>
<path id="XMLID_17_" class="st0" d="M79.6,136.7c29.3,0,53.6-19.9,59.2-48.2c5.7-29.1-9.7-57.2-37.3-68c-2-0.8-4.1-1.4-6-2.3
    c-4.3-2.1-6.5-7.6-4.9-11.9c1.8-4.9,6.6-7.3,11.6-5.9C136.5,10,160.7,44,159,80.5c-1.7,36.4-28.6,67.2-63.7,74.3
    C45.6,164.7-1.1,126,0,74.8C0.8,41,22.9,11.3,55.2,0.9C61.5-1.2,66.9,1,68.7,6.3c1.7,5.2-1.3,10.7-7.3,12.8
    c-21,7.4-35.1,21.5-40.4,43.3C11.5,100.8,40,136.7,79.6,136.7z"/>
</svg>