<?xml version="1.0" encoding="utf-8"?>
<!-- Generator: Adobe Illustrator 19.0.0, SVG Export Plug-In . SVG Version: 6.00 Build 0)  -->
<svg version="1.1" id="Layer_1" xmlns="http://www.w3.org/2000/svg" xmlns:xlink="http://www.w3.org/1999/xlink" x="0px" y="0px"
	 viewBox="0 0 95.8 34" style="enable-background:new 0 0 95.8 34;" xml:space="preserve">
<g id="XMLID_2_">
	<path id="XMLID_7_" d="M27.8,31.2c-3.4,1.9-7.2,2.8-11.5,2.8c-4.9,0-8.8-1.5-11.8-4.5c-3-3-4.5-7-4.5-12c0-5.1,1.6-9.3,4.9-12.5
		C8.2,1.6,12.4,0,17.5,0c3.7,0,6.7,0.5,9.2,1.6v5.6c-2.5-1.7-5.5-2.5-9-2.5c-3.5,0-6.4,1.2-8.6,3.5c-2.2,2.3-3.4,5.3-3.4,9
		c0,3.8,1,6.8,2.9,8.9c1.9,2.2,4.5,3.2,7.8,3.2c2.3,0,4.2-0.4,5.9-1.3v-7.8h-6.9v-4.6h12.4V31.2z"/>
	<path id="XMLID_5_" d="M33.4,32.2v-5.6c0.5,0.5,1.1,0.9,1.8,1.2s1.4,0.7,2.2,0.9c0.8,0.3,1.6,0.4,2.3,0.6s1.5,0.2,2.2,0.2
		c2.3,0,4-0.4,5.1-1.1c1.1-0.8,1.7-1.9,1.7-3.3c0-0.8-0.2-1.5-0.6-2c-0.4-0.6-0.9-1.1-1.6-1.6c-0.7-0.5-1.5-0.9-2.4-1.4
		c-0.9-0.4-1.9-0.9-2.9-1.4c-1.1-0.6-2.2-1.2-3.1-1.8c-1-0.6-1.8-1.3-2.5-2c-0.7-0.7-1.3-1.6-1.7-2.5c-0.4-0.9-0.6-2-0.6-3.3
		c0-1.5,0.3-2.9,1-4s1.6-2.1,2.8-2.8c1.1-0.7,2.4-1.3,3.9-1.7C42.5,0.2,44,0,45.5,0c3.4,0,6,0.4,7.5,1.2v5.4c-1.9-1.3-4.3-2-7.2-2
		c-0.8,0-1.6,0.1-2.4,0.2c-0.8,0.2-1.5,0.4-2.2,0.8c-0.6,0.4-1.2,0.8-1.5,1.4s-0.6,1.2-0.6,2c0,0.7,0.2,1.4,0.5,1.9
		c0.3,0.5,0.8,1,1.3,1.5c0.6,0.4,1.3,0.9,2.2,1.3c0.8,0.4,1.8,0.9,2.9,1.4c1.1,0.6,2.2,1.2,3.2,1.9c1,0.7,1.9,1.4,2.7,2.2
		c0.8,0.8,1.4,1.7,1.8,2.7s0.7,2.1,0.7,3.3c0,1.7-0.3,3.1-1,4.2c-0.7,1.1-1.6,2.1-2.7,2.8c-1.1,0.7-2.5,1.2-3.9,1.6
		c-1.5,0.3-3.1,0.5-4.7,0.5c-0.6,0-1.2,0-2-0.1c-0.8-0.1-1.6-0.2-2.5-0.4c-0.8-0.2-1.6-0.4-2.4-0.6C34.4,32.7,33.8,32.4,33.4,32.2z"
		/>
	<path id="XMLID_3_" d="M95.8,33.5h-5.4V12.2c0-1.7,0.1-3.9,0.3-6.4h-0.1c-0.3,1.4-0.6,2.5-0.9,3.1l-9.8,24.6h-3.8L66.3,9
		c-0.3-0.7-0.6-1.8-0.9-3.3h-0.1c0.1,1.3,0.2,3.5,0.2,6.4v21.3h-5V0.6h7.7l8.7,21.9c0.7,1.7,1.1,2.9,1.3,3.8h0.1
		c0.6-1.7,1-3,1.4-3.9l8.8-21.8h7.4V33.5z"/>
</g>
</svg>
