<?xml version="1.0" encoding="utf-8"?>
<!-- Generator: Adobe Illustrator 19.0.0, SVG Export Plug-In . SVG Version: 6.00 Build 0)  -->
<svg version="1.1" id="Layer_1" xmlns="http://www.w3.org/2000/svg" xmlns:xlink="http://www.w3.org/1999/xlink" x="0px" y="0px"
	 viewBox="345.9 257.5 26.2 33.1" style="enable-background:new 345.9 257.5 26.2 33.1;" xml:space="preserve">
<style type="text/css">
	.st0{enable-background:new    ;}
	.st1{fill:#FFFFFF;}
	.st2{fill:#050505;}
	.st3{fill:#F30A0A;}
</style>
<g>
	<g class="st0">
		<path class="st1" d="M350.3,283.6c-0.2-1-0.3-1.6-1.3-1.6c-1.1,0-1.8,1.1-1.8,3.1c0,1.7,0.6,3.2,1.7,3.2c0.4,0,0.8-0.2,1-0.4v-1.1
			c0-0.5-0.1-0.6-0.7-0.6v-0.4h2.2v0.4c-0.5,0-0.5,0-0.5,0.5v1.2c-0.5,0.5-1.2,0.8-2.1,0.8c-1.9,0-2.8-1.5-2.8-3.6
			c0-2,1-3.5,3.1-3.5c0.5,0,1,0.1,1.5,0.3c0,0.5,0.1,1.1,0.2,1.6L350.3,283.6z"/>
		<path class="st1" d="M356,286.8c0.3,1.1,0.7,1.4,1.5,1.4c0.6,0,1.2-0.4,1.2-1.2c0-0.8-0.5-1.1-1.4-1.7c-1-0.7-1.6-1.1-1.6-2.1
			c0-0.7,0.5-1.7,2.1-1.7c0.6,0,1.1,0.1,1.5,0.3c0,0.4,0.1,0.9,0.2,1.4l-0.5,0.1c-0.2-1-0.4-1.3-1.2-1.3c-0.6,0-1.1,0.3-1.1,1
			c0,0.6,0.3,0.9,1.2,1.5c0.7,0.5,1.2,0.8,1.4,1.1c0.2,0.3,0.4,0.7,0.4,1.2c0,1.1-0.8,1.9-2.3,1.9c-0.6,0-1.1-0.1-1.6-0.3
			c-0.1-0.6-0.2-1.1-0.3-1.5L356,286.8z"/>
		<path class="st1" d="M370.1,281.7h1.9v0.4c-0.7,0-0.7,0.1-0.7,0.8v4.6c0,0.7,0.1,0.8,0.7,0.8v0.4h-2.6v-0.4c0.7,0,0.7-0.1,0.7-0.8
			V283h0l-2.2,5.7h-0.4l-2.3-5.7h0v4.5c0,0.7,0.1,0.8,0.7,0.8v0.4h-1.9v-0.4c0.7,0,0.7-0.1,0.7-0.8v-4.6c0-0.7-0.1-0.7-0.7-0.7v-0.4
			h1.8l2.1,5.3h0L370.1,281.7z"/>
	</g>
	<g>
		<path class="st2" d="M358.8,276.8c-5-0.1-7.4-4.1-7.9-7.4c-0.6-3.8,1.7-7.9,5.1-9.2c2.9-1.1,5.7-0.9,8.4,0.6
			c2.9,1.7,4,4.4,3.8,7.7c-0.2,3-1.5,5.4-4,7.1c-0.9,0.6-1.9,1-3,1.1c-0.2-0.3-0.3-0.6-0.3-0.9c0.3,0,0.7,0,1-0.2
			c1.9-0.8,3.2-2.2,3.7-4.1c0.5-1.7,0.5-3.4,0.2-5.2c-0.6-4-3.9-6.5-7.6-5.9c-2.1,0.4-3.8,1.5-4.6,3.5c-1.1,2.8-0.9,5.7,0.5,8.4
			c1,2,2.7,3.2,5,3.5C359.1,276.3,358.8,276.5,358.8,276.8z"/>
		<path class="st3" d="M360.9,275.8c0,0.3,0,0.6,0.3,0.9c0,0.5,0.2,0.9,0.3,1.3c0,0.2,0.1,0.4,0.2,0.6c0.2,0.7,0.2,0.7-0.6,0.6
			c-0.9,0-1.7,0-2.5,0c-0.3,0-0.5,0-0.3-0.4c0.3-0.6,0.4-1.3,0.6-2c0-0.3,0.3-0.6,0.3-0.9c0.3-0.9,0.5-1.8,0.9-2.8
			c0.3,0.9,0.5,1.6,0.7,2.3C360.7,275.6,360.7,275.7,360.9,275.8z"/>
	</g>
</g>
</svg>
